<?xml version="1.0" encoding="utf-8"?>
<!-- Generator: Adobe Illustrator 24.0.0, SVG Export Plug-In . SVG Version: 6.00 Build 0)  -->
<svg version="1.1" id="Capa_1" xmlns="http://www.w3.org/2000/svg" xmlns:xlink="http://www.w3.org/1999/xlink" x="0px" y="0px"
	 viewBox="0 0 116 116" style="enable-background:new 0 0 116 116;" xml:space="preserve">
<style type="text/css">
	.st0{fill-rule:evenodd;clip-rule:evenodd;fill:#FFFFFF;}
</style>
<g id="_x30_603-muffin">
	<g>
		<path class="st0" d="M115.1,56.5c-0.3-3.7-0.3-7.5-0.3-11.5c-1.2-10.6-6.4-17.1-12.8-22.5c-1.6-1.3-3-2.8-5.1-3.6
			c-0.7-0.8-1.6-1.2-2.6-1.8c-0.8-0.8-2.2-0.9-2.8-1.8c-4.1-1.8-8-3.8-13.3-4.3c-3.1-0.1-5.9,0-8.2,0.8c-1.2-0.8-3.3-0.8-4.9-1.3
			C63.6,4.7,61.5-0.5,53.5,0c-0.3,0-0.4,0.3-0.8,0.3c-2.8,0.6-4.5,2.5-6.1,4.3c-0.5,0.8-1,1.5-1.3,2.6c-0.8,0.4-0.3,2.3-1.3,2.6
			C33.6,11.6,25,15.3,17.5,20.2c-1.8,1.3-3.7,2.5-5.1,4.1c-0.8,0.8-1.9,1.2-2.3,2.3c-0.8,0.8-1.9,1.3-2.3,2.6
			c-1.7,1.4-2.4,3.7-3.8,5.4c-0.3,1.2-1,2.1-1.3,3.3c-0.2,0.6-0.5,1-0.5,1.8c-0.6,0.3-0.2,1.5-0.8,1.8c-0.7,3.9-0.6,8.6,0,12.5
			c0.7,1.2,1,2.8,1.5,4.1c0.7,1.2,1.4,2.4,2,3.6c1.7,2.1,3.4,4.3,5.6,5.9c0.5-0.2,0.5,0.4,0.8,0.5c0.7,0.4,1.7,0.5,2.6,0.8
			c0.2,0.1,0.5,0.4,0.8,0.5c0.9,0.2,1.4-0.3,2,0.3c0.5,2.8,2,4.9,3.1,7.1c1.1,2.3,2.3,4.5,3.3,6.9c0.8,1.5,1.2,3.3,2,4.9
			c2.4,6.8,4.2,14.2,5.9,21.7c1.3,0.9,1.3,3.2,3.1,3.6c1.5,1,4,1,6.1,1.3c2,0.5,4.3,0.6,6.4,1c6.6,0.2,13.1-0.8,19.4,0
			c3.1-0.6,6.2-1.1,9.7-1.3c0.9-0.6,2.1-0.8,3.3-1c0.9-0.6,2.6-0.5,3.6-1c3.1-1.9,4.9-5.2,6.9-8.2c3.7-10.5,6.8-21.6,11-31.7
			c5.5-0.2,8.7-2.9,11.5-5.9c0.5-1.2,1.1-2.3,1.5-3.6c0.2-0.7,0.3-1.4,0.8-1.8c0-0.8,0.1-1.6,0.5-2C114.6,58.3,115,57.6,115.1,56.5z
			 M59.1,4.9c0.2,0,0.4,0.6,1,0.5c1,1.1,1.8,2.5,1.5,4.9c-0.8,1.2-1.8,2.1-4.1,1.8c-1.5-1.1-2.3-2.8-2.3-5.4
			C55.9,5.5,57.4,4.5,59.1,4.9z M91.1,81.5c-0.4,3.7-2,6.1-3.1,9.2c-0.6,1.4-1.2,2.9-2,4.1c-0.4,1.6-1.1,3-1.8,4.3
			c-0.8,3.2-2.4,5.8-4.6,7.7c-12.7,0.8-25.7,1.2-38.8,1.5c-0.7-1.6-1.1-3.5-1.5-5.4c-0.8-1.5-0.9-3.7-1.8-5.1
			c-0.8-3.7-2.3-6.7-3.3-10.2c-0.8-1.5-1.3-3.3-2-4.9c-0.7-1.5-1.4-3-2-4.6c-0.5-0.6-0.6-1.8-1.3-2.3c-0.2-1-1-1.3-1-2.3
			c-0.8-0.3-0.8-1.5-1.5-1.8c-0.1-1-1.1-1.1-1-2.3c5.2-1.2,8.8-4,12.3-6.9c5.6,1.5,9.5,6.1,16.9,6.4c4.5-0.2,7.2-2.2,9.4-4.6
			c1.2,0.2,1.3,1.4,2.3,1.8c0.7,0.7,1.6,1.1,2.3,1.8c1,0.4,1.7,1,2.8,1.3c0.6,0.8,2.1,0.6,2.8,1.3c1.6,0.1,3,0.4,4.9,0.3
			c2.5-0.9,4.2-2.8,5.9-4.6c1.1,0.3,1.6,1.3,2.3,2c0.8,0.6,1.7,1,2.3,1.8c1.8,0.5,3,1.6,4.9,2C93.2,75.3,91.9,78.2,91.1,81.5z
			 M110.2,52.1c-0.2,1.5-0.4,3-0.5,4.6c-1.9,3.3-3.2,7.2-6.6,8.9c-0.4,0-0.7,0-0.8,0.3h-4.1c-1.4-0.3-2.7-0.7-3.8-1.3
			c-1.3-0.4-2.1-1.3-3.3-1.8c-1.3-1.4-2.5-2.8-3.8-4.1c-1.5-0.1-1.3,1.4-2.3,1.8c-0.5,0.9-1.7,1.1-2,2c-1.6,0.7-3,1.8-4.6,2.6h-3.1
			c-4.6-1.1-7.1-4.3-10.5-6.6c-0.8-1.1-1.6-2.4-2.6-3.3c-0.9,0.4-1.4,1.2-1.8,2c0,1.3,0.1,2.4,0.8,3.1c-1.4,1.4-3.3,2.3-5.1,3.3
			c-0.5-0.1-0.7,0.2-1,0.3c-6.6,0.1-9.4-3.7-14.8-4.9c0.1-1.1,1-1.4,0.8-2.8c-0.5-1-1-1.9-2.6-1.8c-1.1-0.1-1.6,0.4-1.8,1.3
			c-0.6,0.4-0.8,1.2-1.5,1.5c-3.1,2-6.9,3.5-10.2,5.4c-1.7,0.3-4,0.1-5.6,0.5c-1.2-0.1-2.2-0.4-3.6-0.3c0-0.5-0.9-0.2-1-0.5
			c-0.2-0.2-0.6-0.3-1-0.3c-1.8-1.8-2.8-4.3-4.3-6.4c-0.3-2.8-1.3-5-2-7.4c-0.2-4.1,0.4-7.5,1-10.7c4.2-7.8,11.1-13.2,19.4-17.1
			c0.8-0.4,1.7-0.7,2.6-1c0.1-0.1,0.4-0.5,0.5-0.5c0.2-0.1,0.5,0.1,0.8,0c0.1-0.1,0.4-0.5,0.5-0.5c0.2-0.1,0.5,0.1,0.8,0
			c0.2-0.1,0.4-0.5,0.5-0.5c0.1-0.1,0.4,0,0.5,0c0.2,0,1.5-0.6,2-0.8c1.4-0.4,3.3-1.1,5.1-1.5c0.9-0.2,1.3-0.3,2.3-0.5
			c0.4-0.1,0.6-0.2,1-0.3c1.1-0.1,1.2,0.7,1.5,1.3c0.3,0.7,0.9,1,1,1.8c1.1,0.9,2.1,1.9,3.1,3.1c1,0.4,2,0.9,2.8,1.5
			c0.8,0.7,1.9,1,2.8,1.5c4.7,0.9,7.4-1.8,9.4-4.3c0.5-1.1,0.6-2.6,1.5-3.3c2.9-0.3,3.8,1.3,5.9,2c1.9,0.7,3.1,2,5.4,2.3
			c0.7-0.4,1.4-0.6,1.5-1.5c0.5-0.7-0.3-1.6-0.5-2.3c-0.2-0.5-1.5-1.2-1-1.5c5.2,0.6,8.8,2.8,12.5,4.9c3.6,2.2,7.1,4.5,10,7.4
			c3.2,2.6,5.6,6,7.7,9.7C109.5,41.4,110.4,46.2,110.2,52.1z M40.2,30.2c0.4-0.4,1-0.7,1.5-1c0.1-0.6,0.5-1,0.8-1.5v-2.6
			c-0.3,0-0.3-0.4-0.3-0.8c-0.7-0.9-1.6-1.7-2.6-2.3c-1.1,0.1-2.1-0.2-3.1,0c-0.9,0.2-2.3,1.1-2.3,1.5c0,0.3-0.2,0.1-0.3,0.3
			c-0.6,1.2-0.4,3,0.3,4.6c0.7,0.6,1.8,0.7,2.6,1.3C37.6,30.3,38.9,30.2,40.2,30.2z M35.9,26.9c-0.3-2.7,3.8-2.6,3.6,0
			c0,0.8-0.5,1-0.8,1.5C37.1,28.6,36.2,28,35.9,26.9z M93.9,27.6c-0.8-0.5-1.3-1.3-2-1.8c-3.4-0.3-4.4,1.9-5.4,4.1
			c0.1,2.2,0.9,3.7,2.3,4.6c3.9,0.2,5.4-2.1,5.4-5.9C93.7,28.6,93.9,28,93.9,27.6z M41.5,34c-2.1-0.7-3.5,0.7-4.3,2
			c-0.5,3.2,1.9,4.9,4.9,3.8c0.7-0.9,1.2-2,1-3.8C42.6,35.3,42.1,34.6,41.5,34z M21.6,41.9c1.8,0.7,4.2,0.1,5.4-0.8
			c0-0.4,0.2-0.7,0.5-0.8c0-0.3,0-0.7,0.3-0.8c0.2-2.5-0.7-3.9-1.8-5.1C21.4,32.8,19.1,38.9,21.6,41.9z M24.9,39.4
			c-1.2,0.4-1.8-0.1-2.6-0.8c-0.6-2.5,2-3.2,3.1-1.8C25.8,37.9,25.5,38.6,24.9,39.4z M76,36.8c-0.3-0.4-1-0.4-1.3-0.8
			c-4.3,0-3.8,7.3,1,6.4c0.1-0.5,0.7-0.5,1-0.8c0.5-1,0.2-2.5,0-3.6C76.3,37.9,76.3,37.2,76,36.8z M63.7,41.4
			c-2.5-0.8-5.1,0.1-4.3,3.3c0.8,1.3,1.4,2.7,3.3,2.8c0.3-0.1,0.5-0.4,1-0.3C65.3,46.3,65,42.4,63.7,41.4z M48.2,91.7
			c0.1-1.5-0.1-2.8-0.5-3.8c0.2-0.9-0.4-1-0.3-1.8c-0.3-0.5,0-1.5-0.5-1.8c-0.1-1.3-0.5-2.4-0.8-3.6c0-0.7-0.1-1.2-0.5-1.5
			c-0.1-0.7-0.1-1.4-0.5-1.8c-0.1-1.4-1-1.9-1-3.3c-0.8-0.8-0.9-2.2-2.6-2h-0.3c-0.8,0.3-1.1,1.1-1.5,1.8c0.1,5,1.6,8.5,2.3,12.8
			c0.2,2.4,0.9,4.2,1,6.6c0.5,0.8,0.4,2.2,1,2.8c0.2,1.1,0.9,1.7,2,1.8c1.2-0.3,2.1-0.8,2-2.3c0.6-0.1,0.1-1.3,0.3-1.8
			C48.3,93.1,48.7,91.9,48.2,91.7z M80.1,76.4c-0.4,0.1-0.6,0.4-1,0.5c-2.5,4.5-3.7,10.2-5.4,15.6c-0.1,1.6-0.3,2.7,0.8,3.6
			c0.2,0.1,0.5,0,0.5,0.3c2-0.1,2.3-2,3.1-3.3c0.5-1.7,0.9-3.5,1.5-5.1c0.7-3.7,2.3-6.4,2.6-10.5C81.4,77.1,81.2,76.3,80.1,76.4z
			 M63,82.3c0.2-1-0.3-1.2-0.3-2c0-1.6-0.1-3.1-1.5-3.3c-0.2-0.8-0.6,0.3-1.3,0c-1,1-1,3-1.3,4.6v4.1c0.9,3.7-0.9,10,3.3,10.5
			c0.6-0.3,1.2-0.5,1.5-1c0.6-0.3-0.1-1.8,0.5-2c-0.3-2.8-0.6-5.7-0.8-8.7C62.7,84.1,63.1,82.9,63,82.3z"/>
	</g>
</g>
</svg>
