<?xml version="1.0" encoding="utf-8"?>
<!-- Generator: Adobe Illustrator 16.0.3, SVG Export Plug-In . SVG Version: 6.00 Build 0)  -->
<!DOCTYPE svg [
	<!ENTITY ns_flows "http://ns.adobe.com/Flows/1.0/">
	<!ENTITY ns_extend "http://ns.adobe.com/Extensibility/1.0/">
	<!ENTITY ns_ai "http://ns.adobe.com/AdobeIllustrator/10.0/">
	<!ENTITY ns_graphs "http://ns.adobe.com/Graphs/1.0/">
]>
<svg version="1.2" baseProfile="tiny" xmlns:x="&ns_extend;" xmlns:i="&ns_ai;" xmlns:graph="&ns_graphs;"
	 xmlns="http://www.w3.org/2000/svg" xmlns:xlink="http://www.w3.org/1999/xlink" xmlns:a="http://ns.adobe.com/AdobeSVGViewerExtensions/3.0/"
	  viewBox="0 0 107 24" xml:space="preserve">
<g id="Fondo">
	<path fill-rule="evenodd" fill="#212020" d="M0.53,22.985v-2.08h1.48c0.9,0,1.4-0.28,1.4-1.96V8.035c0-1.2-0.31-1.57-1.69-1.57
		H0.53v-2.07h17.45v7.4h-1.96c-0.39-3.81-0.71-5.33-4.25-5.33H7.11v5.84h1.4c1.59,0,2.3-0.85,2.3-3.12v-0.36h1.96v9.36h-1.96v-0.67
		c0-2.27-0.71-3.14-2.3-3.14h-1.4v6.53h5.29c2.43,0,3.38-1.59,3.62-5.77h1.96v7.85H0.53z"/>
	<path fill-rule="evenodd" fill="#212020" d="M19.4,22.985v-2.08h1.7c0.74,0,1.24-0.28,1.24-1.23v-12c0-0.84-0.34-1.21-1.4-1.21
		H19.4v-2.07h9.68v2.07H27.6c-1.16,0-1.56,0.28-1.56,1.27v13.2h4.31c2.72,0,3.38-1.6,3.62-5.94h1.96v7.99H19.4z"/>
	<path fill-rule="evenodd" fill="#212020" d="M41.13,22.985v-2.08h1.7c0.6,0,1.13-0.22,1.13-0.95V7.425c0-0.73-0.53-0.96-1.13-0.96
		h-1.7v-2.07H51.5c3.96,0,6.23,1.93,6.23,5.1c0,3.45-2.38,5.08-5.92,5.08h-4.15v5.38c0,0.73,0.66,0.95,1.27,0.95h1.69v2.08H41.13z
		 M47.66,12.495h2.41c2.48,0,3.8-0.81,3.8-2.97s-1.05-3.06-3.8-3.06h-2.41V12.495z"/>
	<path fill-rule="evenodd" fill="#212020" d="M54.77,22.985h8.25v-2.08h-2.06c-0.5,0-0.85-0.11-0.85-0.5c0-0.25,0.06-0.42,0.11-0.59
		l0.87-2.8h6l0.87,2.8c0.06,0.17,0.11,0.42,0.11,0.67c0,0.28-0.21,0.42-0.82,0.42h-2.09v2.08h17.89v-2.08h-1.53
		c-0.9,0-1.3-0.47-1.3-1.37V7.815c0-1.07,0.82-1.35,1.67-1.35h1.16v-2.07H73.7v2.07h1.48c1.03,0,1.35,0.56,1.35,1.27v12.17
		c0,0.72-0.43,1-1.51,1h-0.66c-1.4,0-2.3-0.19-2.77-1.51l-5.29-15h-3.7l-5.05,15c-0.45,1.32-1.38,1.51-2.78,1.51V22.985z
		 M66.32,14.935h-4.46l2.11-6.76h0.06L66.32,14.935z"/>
	<path fill-rule="evenodd" fill="#212020" d="M97.04,4.395h1.53v7.06h-1.9c-0.63-3.05-2.3-5.24-5.44-5.24
		c-2.46,0-3.47,0.67-3.47,2.53c0,4.2,11.79,1.06,11.79,8.88c0,4.46-3.28,5.92-6.98,5.92c-1.98,0-3.96-0.9-5.5-2.21l-0.57,1.65h-1.8
		v-7.6h1.95c0.37,3.76,2.54,5.78,6.29,5.78c2.33,0,3.44-1.15,3.44-2.5c0-4.79-11.79-1.18-11.79-9.2c0-3.95,3.36-5.63,6.56-5.63
		c2.01,0,3.7,0.98,5.02,1.96L97.04,4.395z"/>
	<polygon fill-rule="evenodd" fill="#016CA2" points="83.11,0.535 83.11,2.875 73.47,2.875 	"/>
</g>
<g id="Capa_1">
</g>
</svg>
