<?xml version="1.0" encoding="utf-8"?>
<!-- Generator: Adobe Illustrator 24.0.0, SVG Export Plug-In . SVG Version: 6.00 Build 0)  -->
<svg version="1.1" id="Capa_1" xmlns="http://www.w3.org/2000/svg" xmlns:xlink="http://www.w3.org/1999/xlink" x="0px" y="0px"
	 viewBox="0 0 120 120" style="enable-background:new 0 0 120 120;" xml:space="preserve">
<style type="text/css">
	.st0{fill-rule:evenodd;clip-rule:evenodd;fill:#FFFFFF;}
</style>
<g id="_x30_604-pizza-slice">
	<g>
		<path class="st0" d="M116.5,14.7c-0.6-1-1.4-1.8-1.9-2.9c-1.3-1-2.7-2-4.1-2.9c-0.9-0.1-1.6-0.3-2.2-0.7h-4.8
			c-1-0.2-1.4-1.1-1.9-1.7c-0.6-0.6-1.5-0.9-1.9-1.7c-3.1-1.4-5.7-3.2-9.6-3.8c-0.5,0.1-0.5-0.3-1-0.2c-4.6-0.2-8.7,0.1-11.8,1.4
			c-0.7,0.6-1.6,1-2.4,1.4c-0.8,0.4-1.1,1.4-2.2,1.7c-4-3.8-9.7-5.8-18-5.3c-3.5,0.5-6.6,1.4-9.4,2.6c-0.7,0.7-1.7,1-2.4,1.7
			c-1,0.5-1.2,1.7-2.4,1.9c-1-1-2.5-1.5-4.1-1.9c-0.9-0.2-1.8-0.4-2.9-0.5c-2.1,0-3.7,0.5-5.5,0.7c-1.3,0.8-2.8,1.5-4.3,2.2
			c-0.3,0.7-1.3,0.8-1.9,1.2c-0.9,0.3-1.2,1-2.2,1.2c-0.5,0.9-1.5,1.3-2.2,1.9c-0.7,0.7-0.9,1.9-1.9,2.2c-4-0.8-7.6,0.7-10.1,2.2
			c-1.9,2.6-3,6-2.6,10.8c0.4,0.4,0.4,1.1,0.5,1.7c0.4,0.3,0.6,0.8,0.7,1.4c0.6,0.9,1.1,1.8,1.7,2.6c0.7,0.8,1.3,1.6,2.2,2.2
			c0.7,0.8,1.3,1.8,2.6,1.9c0.7,0.5,2.6,0.2,3.4,0c3.7,7.2,7.4,14.4,11.1,21.6c1.2,1.9,2.1,4.3,3.1,6c0.3,0.5,0.5,0.8,0.7,1.2
			c0.3,0.7,0.6,1.5,1,2.2c0.3,0.5,0.7,0.7,1,1.2c0.4,0.8,0.7,1.8,1,2.4c0,0.1,0.4,0.1,0.5,0.2c0.4,0.8,0.7,1.8,1,2.4
			c0,0.1,0.4,0.1,0.5,0.2c0.5,0.9,0.7,1.9,1.2,2.9c0.1,0.1,0.4,0.3,0.5,0.5c0.4,0.7,0.8,1.4,1,2.2c0.8,0.6,1.1,1.6,1.4,2.6
			c0.6,0.7,1.2,1.6,1.4,2.6c1.3,1.4,1.8,3.7,3.1,5c0.2,1.2,1,1.7,1.2,2.9c0.9,0.4,0.8,2,1.7,2.4c0.8,1.9,1.8,3.7,2.9,5.3
			c0.8,1.9,1.7,3.7,2.9,5.3c0.8,2,1.9,3.6,3.1,5c0.5,0.9,1,1.7,1.4,2.6c0.3,1,1.1,1.6,1.4,2.6c1.4,1.4,2,3.6,4.3,4.1
			c0.5,0.7,1.4-0.3,2.4,0c0.8-0.1,1.6-0.4,2.6-0.2c2.6-2.4,4.2-5.9,6.2-8.9c1.9-3.2,4.3-6,5.5-9.9c1.9-3.1,3-7.1,4.3-10.8
			c1.7-3.4,3.3-7,5-10.3c3.6-6.6,7-13.3,10.1-20.4c1-1.5,1.4-3.6,2.4-5c0.6-1.9,1.8-3.4,2.4-5.3c1.4-3.7,2.9-7.3,3.4-12
			c1.1-1.9,1.8-4.1,2.6-6.2c1.7-0.1,2.6-1,3.8-1.4c2.2-2.3,4.2-4.7,5-8.4v-3.8C116.8,16.3,116.8,15.5,116.5,14.7z M55.2,103.2
			c-0.5-0.7-0.5-1.9-1.2-2.4c0-0.8,1.4-0.2,1.2-1.2c0.1-0.5-0.3-0.5-0.2-1c-0.8-0.1-1.1,0.2-1.7,0.2c-0.6-1.2-1.2-2.5-1.7-3.8
			c1.6-0.8,3.1-1.7,5.5-1.7c1,0.7,1.6,1.8,2.4,2.6c-0.1,1.2,0.3,2.8-0.2,3.6h-0.2C58.4,101.4,57.2,102.7,55.2,103.2z M83.6,76.5
			c-0.1,1.2-0.7,1.9-1.2,2.6c-0.3,1.1-0.7,2-1.2,2.9c-0.5,0.8-0.7,1.9-1.4,2.4c-0.9-0.1-1-1.1-1.4-1.7c-0.4-0.6-0.4-1.5-0.7-2.2
			c0.2-1.7-0.4-2.6-0.2-4.3c0.1-0.2,0.4-0.3,0.5-0.5c0.4-0.6,0.8-1.2,1.7-1.7c1.3-0.7,3.8-1.1,5.5-0.2
			C84.6,74.8,84.2,75.7,83.6,76.5z M94.9,53.7c-2.4,5.8-5.6,10.9-7.9,16.8c-1-0.4-1.7-1-3.1-1c-4.3,0-7.3,2-8.9,5
			c-0.9,1.7-1.4,3.4-1.2,6.5c0.3,1.3,0.6,2.6,1.2,3.6c0.4,0.7,1,1.3,1.4,1.9c0.5,0.6,1.7,0.5,1.9,1.4c-5,9.2-9.3,19-15.1,27.4
			c-1.8-0.7-2.4-2.7-3.6-4.1c-0.7-1.8-1.8-3.3-2.6-5c0.1-0.9,1.2-0.7,1.7-1.2c0.5-0.4,1.2-0.6,1.4-1.2c1.1-0.6,1.7-1.8,2.4-2.9
			c0.2-1.3,0.5-4.8,0-6.2c-0.1-0.2-0.4-0.6-0.5-0.7c-0.1-0.3-0.1-0.6-0.2-1c-0.1-0.1-0.4-0.2-0.5-0.2c-0.1-0.1,0.1-0.4,0-0.5
			c-0.7-0.9-1.9-1.4-2.6-2.2c-2.9-1.2-6.5-0.5-8.9,0.7c-2.4-4.8-5.1-9.4-7.2-14.4c-1-2.6-2.3-4.9-3.4-7.4c-0.6-1.3-1.4-2.3-1.9-3.6
			c-0.8-0.9-1.2-2.3-2.2-3.1c-1.1-2.5-2.6-4.6-4.1-6.7c-1.4-2.2-2.6-4.6-3.8-7c-2.3-4.9-4.6-9.6-7-14.4c0-1,1.2-0.8,1.7-1.4
			c0.6-0.3,1.1-0.8,1.7-1.2c1.6-1.2,2.7-2.9,4.3-4.1c1.2-1.6,2.3-3.3,4.1-4.3c4.4,0.6,7,2.9,11.5,3.4h2.9c5.1-0.7,7.4-4.1,11.8-5.5
			c2-0.1,2.8,0.9,4.3,1.2c1.3,0.5,2.6,1.1,3.8,1.7c2.7,0.4,6.1,0.2,9.1,0.2c2.9-0.5,3.9-2.8,7.4-2.6c2,0.7,3.3,2,4.3,3.6
			c1.4,1.3,2.6,2.7,3.8,4.1c1.1,0.4,1.9,1.1,2.9,1.7c1.2,0.1,1.9,0.7,3.4,0.5c0.6,0.8,1.1,1.6,1.7,2.4c0.9,0.4,1.8,0.7,2.4,1.4
			C100.5,42.6,97.7,48.1,94.9,53.7z M113.1,20c-0.4,2-1.5,3.3-2.4,4.8c-1.9,1.3-3.1,3.3-6.2,3.4c-0.8,0.7,0.5,1.5,0,1.9
			c-1,0.3-1.4,1.2-2.6,1.2c-1.8-0.5-2.3-2.3-3.6-3.4c-1.2-0.3-1.8-1.3-3.1-1.4c-0.8-0.7-1.7-1.4-2.6-1.9c-0.9-1.1-1.9-2.2-2.9-3.4
			c-0.9-0.6-1.7-1.2-2.4-1.9c-0.9-0.5-2-0.9-2.9-1.4h-4.1c-0.9,0.5-2.1,0.6-2.6,1.4c-1,0.3-1.8,0.8-2.6,1.2c-1.2,0.2-1.9-0.3-2.6,0
			c-0.9,0.2-0.2-1-0.7-1.2c-0.1-0.5-0.6-0.5-1-0.7c-1.1,0-0.9,1.2-1.4,1.7c-1-0.2-1.6-0.6-1.4-1.9c0.2-0.7-0.2-0.9-0.2-1.4
			c0.2-0.8-0.6-0.5-0.7-1c-0.9-0.2-0.9,0.6-1.4,0.7c0,0.7,0,1.5-0.7,1.4c-1.2-0.1-0.6-2-0.7-3.1c0.1-1.3,0.1-2.5-1-2.6
			c-2.4,0-1.3,3.4-1.9,5c-2.4-0.4,0.5-4.9-1.4-5.5c-1.3,0-1.6,0.9-1.7,2.2c-0.5,0.1-0.1,1.2-0.2,1.7c-0.5,0-0.1,1-0.2,1.4
			c-4.7,1-6.7,4.5-11.3,5.5h-3.6c-4.2-0.7-7-3.2-12-2.4c-1.3,0.4-2.5,0.9-3.4,1.7c-1.3,1.2-2.7,2.3-3.6,3.8
			c-1.1-0.6-0.7-2.7-2.2-2.9c-2.5,0.9,0.7,4.5-0.7,5.8c-1.7-0.5-0.4-3.9-2.6-3.8c-1.3,0.1-0.9,1.9-0.7,2.9c0,1,1.1,2,0.5,2.9
			c-1.8-1.2-0.6-5.5-2.4-6.7c-1,0-1,0.9-1.4,1.4c-0.1,1.3,0.2,2.1,0.2,3.1c-0.2,1,0.9,2,0.2,2.6c-0.8-0.1-0.6-1.3-1-1.9
			c-0.2-0.6-0.5-1.3-0.5-2.2c-0.8-1,0.1-3.8-1.4-4.1c-1.1-0.2-0.7,1.2-1.2,1.7c-0.1,1.8,0.2,3.2,0.5,4.6c-1-0.6-1.2-2-1.7-3.1
			c-0.4-1.2-0.7-2.5-0.7-4.1c0.1-1.1,0.5-1.9,0.7-2.9c0.4-0.2,0.7-0.5,1-1c1.4-0.6,3.6-0.6,5.3-0.2c0.5,0.6,1.3,0.9,1.9,1.4
			c1.6-0.1,3.8,0.4,4.1-1c0.2-1.5-0.9-1.8-1.2-2.9c1.9-2.1,4.1-3.9,7.4-4.6h4.6c1.9,0.3,3.1,1.1,4.6,1.9c0.8,0.4,1.4,1.4,2.6,1.2
			c1.3-0.2,1.6-1.3,1.4-2.9c2.1-0.1,2.7-1.8,4.1-2.6c1.1-1,2.7-1.7,4.1-2.4c3.3-1.1,7.4-1.4,12-1.2c3.6,0.6,6.2,2.1,8.7,3.8
			c1.1,1,1.4,2.9,3.8,2.6c1.1-0.3,1.8-1.7,1.2-2.9c3.1-2.2,7.7-3,13.2-2.9c2.5,0.3,4.9,1.4,7,2.4c0.4,0.2,0.8,0.4,1.2,0.7
			c0.2,0.1,0.5,0.1,0.7,0.2c0.4,0.2,0.6,0.7,1,1c0.7,0.5,0.9,0.7,1.4,1.2c0.1,0.1,0.4,0.7,0.7,1c0.4,1.6,0,4,1.7,4.3
			c2.7,0.2,2.7-2.3,3.1-4.3c4-0.3,5.8,1.8,7.7,3.6c0.2,0.6,0.4,1.2,0.7,1.7L113.1,20L113.1,20z M48,32.5c0.3,0.2,0.6,0.7,0.7,1
			c0.2,0.3,0.2,0.8,0.5,1.2c0.4,0.6,1,1.2,1.4,1.9c0.2,0.4,0.2,0.8,0.5,1.2c0.2,0.3,0.5,0.6,0.7,1c0.4,0.7,0.8,1.5,1.4,1.9
			c0.3,0.2,0.9,0.3,1.2,0.5c0.4,0.2,0.7,0.7,1.2,0.5c1.7-0.8,3.7-1.2,4.8-2.6c-0.4-3-2.6-4.1-3.6-6.5c-1.7-1.7-2.5-4.3-4.1-6
			c-0.8-0.4-2-0.2-2.9,0c-1,0.7-1.8,1.7-2.4,2.9C47.7,30.5,48.3,31.1,48,32.5z M51.6,29.2c0.8,1.4,1.6,2.9,2.4,4.3
			c0.8,1.4,1.5,2.9,2.6,4.1c-0.1,0.7-1,0.6-1.2,1.2c-1.4-1-1.8-3-3.1-4.1c-0.3-0.9-0.8-1.6-1.4-2.2c-0.2-1-1.3-1.1-1.4-2.2
			C50.2,30,50.5,29.2,51.6,29.2z M77.8,31.3c0.4-0.5,1.2-0.6,1.2-1.4c-0.8-1.3-1.5-2.8-3.8-2.6c-0.2,0.3-0.2,0.9-0.5,1.2
			C75.4,29.8,76,31.2,77.8,31.3z M69.2,30.1c-0.9-1.4-3.5-0.4-3.4,1.4C66.8,32.8,69,31.8,69.2,30.1z M38.6,39.7
			c0.6-0.3,0.5-1.3,1-1.7c0.4-3.6-0.9-5.5-2.4-7.2c-0.6,0-0.8-0.4-1.2-0.7c-0.3,0-0.7,0-0.7-0.2h-2.2C31.9,30.5,31,31.3,31,33
			c-0.1,1.2,0.5,1.8,1,2.4c0.4,0.8,0.8,1.6,1.2,2.4c0.9,1.4,1.6,3,4.1,2.9C37.7,40.4,38.4,40.3,38.6,39.7z M36.7,38.3
			c-1.1-0.3-1.5-1.3-2.2-2.2c-0.4-1-1.3-1.4-1.2-2.9c-0.2-0.7,0.5-0.5,0.5-1C36.6,32.3,38,35.8,36.7,38.3z M90.5,37.3
			c-1.2,1-2.3,2.1-2.2,4.3c0.6,0.4,1,0.9,1.9,1C92,42,93.6,39,92,37.3H90.5z M74.4,40.5c-1.9-0.1-3.4,0.1-4.8,0.5
			c-1.6,0.3-2.5,1.2-3.8,1.7c-1,1.2-2.2,2.3-3.1,3.6c-0.4,1.4-1.1,3.1-0.5,4.8c0.6,0.1,0.4,0.8,1.2,0.7c0.1,0.6,1.2,0.2,1.4,0.7
			c0.6,0.1,1.7-0.3,1.9,0.2c0.6,0.1,1.7-0.3,1.9,0.2c-1.2,1.5-1.6,5.3-1.2,7c0.1,0.5,0.2,0.9,0.5,1.2c0.4,0.4,0.8,0.9,1,1.2
			c0.6,0.1,1.1,0.3,1.4,0.7H74c2.5-1.3,4-4,3.4-7.7c-0.5-0.4-0.4-1.4-1-1.7c-0.1-0.5-1.1-1.3-0.5-1.7c1.5,0.2,3,0.3,4.8,0.2
			c1.1-0.9,1.2-2.8,1.2-4.8C81.4,43.1,78.6,41.1,74.4,40.5z M78.8,49.3c-0.5,0.5-2.2-0.1-2.6,0.5c-1.1,0-1.5,0.8-2.4,0.2
			c0,0.6-0.1,1.1-0.5,1.4c-0.2,1.3,0.3,1.9,0.2,3.1c0.2,1.1,1,1.5,1,2.9c-0.4,1.5-0.7,3-2.6,2.9c0-0.3-0.4-0.2-0.7-0.2
			c-1.8-2.7,0.3-6.9-0.5-10.1c-0.6-0.5-1.7-0.5-2.9-0.5c-0.8-0.3-1.9-0.3-2.9-0.5c0.9-2.4,3-3.6,5-4.8c1.6-0.3,3.6-0.2,5.5-0.2
			c0,0.3,0.4,0.2,0.7,0.2c0.6,0.5,1.3,0.9,1.9,1.4C78.3,46.9,78.9,47.8,78.8,49.3z M30.5,44.5c0.3,1.1,3.1,1.4,3.4,0
			C33.9,42.8,30.4,43,30.5,44.5z M52.8,53.7c0-0.1-0.2-0.2-0.2-0.5c-0.1-0.9-0.3-0.9-0.5-1.4c-0.1-0.4-0.1-0.6-0.2-1
			c-0.3-0.1-0.5-0.3-0.5-0.7c-1.4-1.2-2.9-2.4-5-2.9h-1.7c-0.1,0-0.3,0-0.2,0.2c-3,0.5-5.2,1.9-7,3.6c-0.6,1.3-1.3,2.4-1.4,4.1
			c0.2,4.6,2.7,6.9,6,8.4c2.9,0.7,6.2,0,8.2-1C52.1,61,53.3,57.1,52.8,53.7z M48.7,58.7c-0.5,0.3-1.1,0.5-1.4,1
			c-0.3,0-0.7,0-0.7,0.2c-1.1,0-2.3,0.1-3.1-0.2c-1-0.1-1.5-0.7-2.4-1c-0.3-0.8-0.5-1.7-0.7-2.6c0.3-1.7,1.1-2.9,1.4-4.6
			c0.9-0.6,2-0.8,3.1-1.2c1.3,0.1,2.2,0.6,3.1,1c0.2,0.5,0.4,1,1,1.2c0.3,1,0.6,2,0.7,3.1C49.6,56.9,49.1,57.8,48.7,58.7z M89.6,51
			c0.4,1,2.1,1.5,2.9,0.7C92.6,50.3,89.7,49.3,89.6,51z M46.3,52c-0.4,0.3-0.4,1.6,0,1.9h1c0.4-0.3,0.4-1.6,0-1.9H46.3z M43.2,53.9
			c0,0.8,0.5,1.1,1.4,1C45.3,53.9,43.8,53,43.2,53.9z M46.8,57.5v-1.2C44.7,55.2,44.9,58.6,46.8,57.5z M85.7,64.7
			c1.9,0.1,1.6-2.8,0.7-3.6C84,60.4,84,64.5,85.7,64.7z M67.2,69.1c0.2-0.3,0.4-0.7,0.7-1c0-1.2-0.5-1.9-1-2.6
			c-2-0.9-3.3,0.8-2.6,2.6C65.2,68.5,65.9,69.1,67.2,69.1z M41.5,67.4c-0.2-0.6-1.3-1-1.9-0.5c0,1.6,1.8,3.4,3.1,2.2
			C42.7,68.1,42.4,67.5,41.5,67.4z M61.7,68.8c-0.4-0.1-1-0.1-1.2-0.5c-1.8-0.2-2.6,0.6-4.1,0.7c-0.4,0.6-1.2,0.9-1.7,1.4
			c-0.8,0.3-0.9,1.3-1.9,1.4c-0.6-1.1-1.6-1.9-3.1-2.2c-0.9-0.1-1.2,0.4-1.9,0.5c-1.1,1.2-1.7,2.9-1.9,5c0.7,4.8,2,9,6.5,10.1
			c1.4,0.2,2.4-0.4,2.9-0.7c1.6-1,3.1-2.7,3.1-4.8c0.1-1.3-0.7-1.7-1-2.6c2.5-1,5-2,5.8-4.8C63.3,70.6,62.5,69.7,61.7,68.8z
			 M58.3,74.3c-1.2,0.3-2.6,0.4-3.4,1.2c0.1,0.8-0.2,1.9,0.2,2.4c0.2,0.6,0.4,1.4,0.7,1.9c-0.5,1-1.1,1.9-2.4,2.2
			c-3.5-0.7-5.8-4.8-4.3-8.9c2-0.2,2,1.5,3.6,1.7c1,0.2,1-0.7,1.4-1c0.6-0.2,0.6-0.8,1.2-1c0.7-0.8,1.8-1.3,2.6-1.9
			c1.3,0,2-0.4,2.6,0.5C60.8,73.3,59.1,73.3,58.3,74.3z M80,76.5c0.5,0.1,0.9-0.1,1-0.5c-0.3-0.1-0.4-0.4-0.7-0.5
			C80.1,75.9,79.9,76,80,76.5z M79.5,78.2c-0.4,0.3-0.8,1.2-0.2,1.7c0.9,0.1,1.4-0.2,1.4-1C80.3,78.6,80.2,78.1,79.5,78.2z
			 M66.5,80.6c-0.4-0.2-0.6-0.7-1.4-0.5c-1,0.8-2.6,1-2.6,2.9c0.5,0.7,2.2,0.6,2.4-0.2C65.8,82.4,66.6,82,66.5,80.6z M68.7,84.2
			h-0.2c-1.2,1.2-2.6,2.3-2.9,4.6c0.5,1.8,1.3,3.2,2.2,4.6c0.2,0.9,0.9,1.3,1.2,2.2c0.7,0.4,0.8,1.5,1.9,1.4c2-0.5,3.4-1.8,4.1-3.6
			c0-0.6-0.4-0.8-0.7-1c0.1-0.8-0.2-1.1-0.2-1.7c-0.9-1.1-1.6-2.2-2.4-3.4C70.6,86.3,70.5,84.4,68.7,84.2z M71.6,94.3
			c-0.5,0-0.5-0.6-0.5-1.2c-1-1.4-2.3-2.5-3.4-3.8c-0.2-1.1,0.6-1.2,0.7-1.9c0.3,0.1,0.4,0.4,0.7,0.5c0.8,2,1.9,3.5,3.4,4.8
			C72.5,93.4,71.7,93.5,71.6,94.3z M55.9,94.8c-0.6,0-1.2,0-1.4,0.2c-0.1,0.6,0,0.9,0.2,1.2c0.6,0,1.2,0,1.4-0.2
			C56.4,95.3,55.8,95.3,55.9,94.8z M57.6,98.1c-0.2,0-0.2,0.2-0.5,0.2c-0.4,1.4,1.1,1.8,1.9,1.2C59.1,98.6,58.6,98.1,57.6,98.1z
			 M60.7,105.8c0.3,1.1,1.6,2.1,2.9,1.4C64.7,105.7,61.3,103.6,60.7,105.8z"/>
	</g>
</g>
</svg>
