<?xml version="1.0" encoding="utf-8"?>
<!-- Generator: Adobe Illustrator 24.0.0, SVG Export Plug-In . SVG Version: 6.00 Build 0)  -->
<svg version="1.1" id="Capa_1" xmlns="http://www.w3.org/2000/svg" xmlns:xlink="http://www.w3.org/1999/xlink" x="0px" y="0px"
	 viewBox="0 0 120 120" style="enable-background:new 0 0 120 120;" xml:space="preserve">
<style type="text/css">
	.st0{fill-rule:evenodd;clip-rule:evenodd;fill:#FFFFFF;}
</style>
<g id="_x30_405-vegetables">
	<g>
		<path class="st0" d="M118.5,72.1c0.3-1.1,0.7-2.2,1.2-3.2c0.6-4.3,0.1-9.1-1.7-11.8c-1.8-0.6-5-0.8-6.1,0.5
			c-0.8,1.9,0.4,5.8-0.7,7.4c-3.2-2.2-9.2-0.3-13.5-1.5c2.2-5.8,3.6-13.7,2.7-21.8c-0.9-1.2-1.6-2.5-2.2-3.9
			c-1.3-1.1-2.3-2.6-3.9-3.4c-1.4-1-2.7-2.1-5.2-2c-0.6,0.6-1.5,0.9-1.5,2.2c0.5,1.6,2.1,2,3.2,2.9c0.5,0.5,1.4,0.8,1.7,1.5
			c0.4,0.4,1.5,0.9,1,1.5c-1.9,0.6-3.1,1.8-5.2,2.2c-0.3-4.3-2.2-7-4.2-9.6c-1.1-0.7-2.2-1.5-3.4-2.2c-1.1-0.1-2-0.4-3.2-0.5
			c-1.9,0.2-3.4,0.4-4.9,1c-0.1,0,0,0.2-0.2,0.2c-0.6,0-0.9,0.4-1.5,0.7c-1.8,1.1-2.6,1.8-3.7,3.4c-0.7,1.1-1.4,2.8-1.5,4.9
			c0.1,2.4,0.9,4.2,1.5,6.1c-1.2-0.1-2.9,0.7-3.9,0c0.5-1.4-0.1-2.5,0-4.2c-0.5-0.7-0.5-1.9-1-2.7c-0.3-0.9-0.9-1.5-1.2-2.5
			c0.9,0,1.7-0.1,1.7-1c0.5-0.6,0.4-1.7,0.7-2.5c0.2-0.9,0.6-1.5,0.7-2.5c0.7-1.4,0.8-3.3,1.7-4.4h3.2c1.6-0.4,4.2,0.1,4.2-2
			C73,23,69.5,23.8,67.5,24c0.2-1,1.1-1.2,1.5-2c0.1-0.5,0.7-0.5,0.7-1c0.4,0.1,0.9-1,0-0.7c-4.1,0.2-4.8,3.7-6.9,5.9
			c-0.7-1.3-0.8-3.3-2.2-3.9c-0.7,1.4,0.7,2.5,0.2,4.4c0.5,0,0.1,0.9,0.2,1.2c0.4,0.1,0.6,0.4,0.5,1c-0.3,0.8-0.5,1.8-1,2.5
			c0.2,0.8-0.4,0.7-0.2,1.5c-0.7-0.2,0.2,1.2-0.5,1v1.5c-0.2,0.5,0.7,0.8,0,1c-1.3-1.1-3.1-1.8-4.4-2.9c-1,0.1-1.6-0.2-2.5-0.2
			c-1.1-0.2-1.4,0.6-2.5,0.5c-0.1-1.7,0.1-3,0.2-4.4c-0.2-1.6-0.6-2.9-0.7-4.4c-0.2,0-0.3-0.4,0-0.5v0.5c0.5,0.2,0.7,0.7,1.5,0.7
			c0.2-5.9,1.5-10.8,5.6-12.8c1.4-0.4,3.8-0.3,5.2,0c0.7,0.5,1.3,0.9,2,1.5c0.7,0.2,1.1,1.7,2,1c0.5-0.6,0.2-2,0.2-2.9
			C68.4,9,70,5.5,75.1,5.5c0.6,0.5,1.5,0.8,1.7,1.7c0.4,0.7,0.5,1.6,0.7,2.5c-0.1,1.9-0.1,3.8,1.5,4.2c1.1,0.2,1.4-0.4,1.7-1
			c0.8-0.1,0.2-1.6,0.7-2c-0.2-3.4-1.2-6-2.9-7.9c-0.7-0.2-1.2-0.6-1.7-1c-0.4,0-0.9,0.1-1-0.2c-4.7-0.4-7,1.5-9.3,3.4
			c-0.2,0.5-0.4,1-1,1.2c0,0.8-0.8,0.8-0.7,1.7c-0.5,0.2-0.3,1.2-1,1.2c-1.3-0.7-2.6-1.3-4.4-1.5c-6,0.4-8.7,4.2-10.1,9.3v5.2
			c0.1,0.1,0.6,0.9,0,1c-0.5-1.4-1.4-2.3-2.2-3.4c-0.4,0-0.6-0.2-0.7-0.5c-0.8-0.3-1.8-0.3-2.5-0.7c-0.1-2-0.3-3.9-1.2-5.2
			c-0.5-1.6-1.9-2.3-2.9-3.4c-1.4-0.3-2.8-0.7-4.7-0.5c-0.2,0.2-0.6,0.3-1,0.2c-1.2,0.2-1.7,1.1-2.9,1.2c-0.9-3.5-3.3-5.5-5.4-7.9
			c-0.8-0.1-1.2-0.6-1.7-1c-0.6,0-1.2-0.1-1.5-0.5h-3.9c-0.3,0.4-0.8,0.5-1.5,0.5C17,2.8,16.5,3,15.9,3.1c-0.6,0.8-1.2,1.4-2,2
			c-0.6,1.7-1.5,3-1.7,5.2c-0.2,3.4,0.4,5.9,1,8.6c-1.3,0-1.7,0.9-2.7,1.2c-1.7,1.7-2.9,3.8-2.7,7.4c0.2,1.9,0.8,3.4,1.2,5.2
			c-1.2,0.5-2.2,1.2-3.4,1.7C3.2,37.6,0.5,40.5,0,45.8v3.9c1.4,9,5.4,15.4,10.6,20.6c2.4,2.8,5.3,5.2,8.3,7.4
			c3.3,1.9,6.9,3.4,11,4.4c0.6,0,1.2,0,1.5,0.2c0.1-0.5,1.2-0.1,1.7-0.2c0.4,0.1,1-0.7,1.2,0c-0.6,1.4-1.2,2.9-1.5,4.7v4.7
			c0.8,4,2,7.6,3.4,11c1.6,3.1,3.6,5.9,5.9,8.3c2.5,2.3,5.2,4.4,9.1,5.4c0.8,0.4,1.8,0.6,2.9,0.7c0.8,0.4,2.2,0.1,2.9,0.5
			c2,0.3,4.2,0.6,6.4,0.7h1c1.1-0.1,1.9-0.4,3.2-0.2c0.2-0.4,1-0.3,1.5-0.5c0.5-0.2,0.9-0.4,1.5-0.5c0.9-0.4,1.8-0.8,2.9-1
			c1.9-0.7,3.8-1.5,5.4-2.5c3.6-1.6,6.8-3.5,10.3-5.2c1.4-1.2,3.4-1.9,4.9-2.9c1.8-0.8,3.9-1.3,5.4-2.5c1.9-0.7,3.5-1.8,4.9-2.9
			c0.8-0.5,1.5-1.1,2.2-1.7c0.6-0.6,1-1.6,2-1.7c0.3,1.3,0.5,2.6,2,2.7c1.5,0.3,1.6-0.9,2.5-1.2c0-0.7,0.7-0.6,1-1
			c0.5-0.1,0.5-0.7,1-0.7c1-2,2-4,2.7-6.4c0.9-2.2,1.5-4.5,2-7.1c0.1-3,0.1-3.4,0-6.4C119.4,74.9,118.9,73.6,118.5,72.1z M77.1,35.2
			c1-0.2,1.3,0.4,2.2,0.2c1.3,1.2,2.8,2.1,3.2,4.2c-2,0.5-3.6,1.5-6.4,1.2C74.8,38.9,76.6,37,77.1,35.2z M57.7,39.4
			c0.1,0.8,0.7,1.1,0.5,2.2c-0.1,0.9-1.3,0.8-1.7,1.5h-1.7c-1.5-0.5-2.8-1.1-3.2-2.7C51.2,37,56.5,38.1,57.7,39.4z M11.8,24.2
			c0.6-0.2,0.7-0.7,1-1.2c0.7-0.2,1.3-0.4,1.7-0.7c2.1-0.4,3.7,0.8,5.2,0.2c0.2-0.8-0.8-0.3-0.7-1c-0.6,0.1-0.3-0.7-0.7-0.7
			c-0.3-1.2-1-2-1.5-2.9c0-0.6,0-1.2-0.2-1.5V10c0.6-1.2,1.3-2.3,2.2-3.2c0.9-0.4,2-0.6,3.4-0.5c0,0.3,0.4,0.2,0.7,0.2
			C23.5,7.1,24.2,7.6,25,8c1.5,2.4,3.9,3.9,4.4,7.4c0.8,0.1,1-0.4,1.5-0.7c0.6,0,1.2-0.1,1.5-0.5c1.9,0,3.3-0.4,5.4-0.2
			c1.8,1.1,3.1,2.7,3.4,5.2c0.1,1.2-0.3,2.9,0.2,3.7c0.8,0.4,1.6-0.2,2.9,0c1.9,1.9,2.6,4.9,2.5,8.8c-0.1,0.5,0.5,0.3,0.5,0.7
			c-0.4,1.2,0.2,1.3,0.2,2.5c-3.7,1.5-6,5.3-5.2,10.6c-0.5,0.8-1.4,1.4-2.7,1.5c-0.7-1.7-0.6-4.2-1-6.1c0.5-1.8,0.8-3.8,1.2-5.6
			c0.4-1.4,1.5-4.4-0.2-5.2c-2.5,0.4-2.8,3-3.4,5.4c-1-0.8-1.5-2.1-2.2-3.2c-0.8-1-1.7-1.9-2.2-3.2c0.2-2.4,2.6-4.5,1.2-6.9
			c-2.7-0.1-3,2.2-3.9,3.9c-1.5-0.4-1.6-2.1-3.7-2c-1.8,1.5,0.8,3.6,1.5,4.9c0.8,0.5,1.1,1.5,1.7,2.2c0.6,0.6,1.2,1.3,1.7,2
			c-0.3,0.7-0.8-0.3-1.5,0c-0.3-0.3-1.2-0.1-1.5-0.5c-1.8,0-4-0.6-5.6,0c-0.1,2.6,2.6,2.4,4.4,3.2c2,0.5,4.1,1,6.6,1
			c1,1.6,1.9,3.1,2.2,5.4c-1.4-0.2-3.6-2-4.7-0.2c-0.2,1.5,1,1.6,1.5,2.5c0.5,0.1,0.8,0.5,1.2,0.7c0.1,0.6,1.2,0.1,1,1
			c-6-0.6-11.6-1.6-16.7-3.2c0.1-1.2,0.1-2.4-0.2-3.7c0-1.3,1.7-1,1.2-2.7c-0.1-1-1.1-1.2-2.2-1.2c-1.5-1.6-3.1-3.1-4.2-5.2
			C11.7,28.2,11.3,26.3,11.8,24.2z M11,40.1h0.5v0.5H11V40.1z M9.1,37.7v1.2C7.9,38.9,7.9,37.7,9.1,37.7z M36.1,79.4
			c-0.8,0.1-0.5-1-1.2-1c-0.4-0.3-1-0.3-1.2-0.7c-1.5-0.1-3.1-0.2-4.4-0.7c-0.1,0,0-0.2-0.2-0.2c-0.5-0.1-1.4-0.3-2-0.5
			c-0.1,0-0.1-0.2-0.2-0.2c-1.6-0.4-3.5-1.4-4.9-2.5c-0.8-0.1-1.3-0.8-2-1.2c-0.2-0.1-0.5-0.1-0.7-0.2c-0.3-0.2-0.6-0.7-1-1
			c-0.5-0.3-1-0.2-1.2-0.7c-0.8-0.6-1.6-1-2.2-1.7c-0.7-0.6-1.8-0.9-2-2c2.6,0.6,6.2,2,9.1,0.7c0-1.5-1.3-1.6-2.2-2.2
			c-1.2-0.2-2.3-0.5-3.4-0.7c-2.4-0.5-4.4-1.3-6.9-1.7c-1-1.1-1.8-2.4-2.5-3.9c2.5,0.6,4.1,2.1,6.9,2.5c0.8,0.7,2.3,0.8,3.7,1
			c1.6,0.1,2.7-0.2,3.2-1.2c-0.3-0.7-0.9-1.2-1.7-1.5c-0.7-0.3-1.2-0.7-2.2-0.7c-1.3-0.8-3.1-1-4.4-1.7c-3-1-5.5-2.5-7.9-4.2
			c-0.3-0.4,0-1.4-0.5-1.7c-0.1-0.5,0.3-1.6-0.2-1.7c0.3-1,1,0.1,1.2,0.5c0.7,0.2,0.9,0.7,1.5,1c1.1,0.6,2.1,1.4,3.4,1.7
			c0.6,0.3,1.1,0.7,2,0.7c0.2,0.6,1.4,0.2,1.7,0.7c1.4,0.1,3.5,0.7,4.2-0.5c0.2-1.6-1.2-1.6-2-2.2c-0.9-0.4-1.6-1-2.7-1.2
			c-1.7-1-3.6-1.7-5.2-2.7c-1.3-1.3-2.4-2.8-3.4-4.4v-1c1.1,0,1.4,0.9,2.2,1.2c1.1,0,1.8,0.4,2.2,1c0.9,0.2,1.4,0.7,2.2,1
			c0.7,0.4,1.6,0.5,2.2,1c3.2,1,6.3,2,9.8,2.7c6.9,1.5,14.4,2.4,22.6,2.7c0.9-0.2,0.9,0.4,1.7,0.2h14.2c3.2-0.4,6.8-0.4,9.8-1
			c1.6-0.2,3.1-0.5,4.7-0.7c0.9,0,1.4-0.4,2.2-0.5c0.7-0.2,1.5-0.1,2-0.5c3.2-0.4,5.7-1.5,8.6-2.2c2.6-0.9,4.6-2.5,7.1-3.4
			c0.2,8.1-1.5,14.2-3.4,20.1c-2.1,0-4.6-0.3-5.6,0.7c-0.3,0.7-0.3,1.7-0.2,2.7c0.4,0.4,1,1.2,0.5,1.7c-4.4,0.5-7.4,2.4-11.8,2.9
			h-5.9c-5.3-0.2-9-2-14.2-2.2C46.1,70.1,40.5,74.2,36.1,79.4z M104.8,92.9c-1.1,0.7-2.3,1.3-3.2,2.2c-0.6,0-0.7,0.4-1.5,0.2
			c-2.3,2-5.4,3.1-7.9,4.9c-3,1.2-5.9,2.6-8.8,3.9c-0.8,0.1-0.7-0.6-1-1c-0.2-0.4-0.9-0.4-1.2-0.7c-1.6,0.1-2.1,1.6-1.5,3.2
			c-1.3,0.2-2.4,0.7-3.9,0.7c-0.7-0.2-1-0.8-1.2-1.5c-0.5-0.3-0.8-0.8-1-1.5c-0.8-0.9-1.3-2.2-2.7-2.5c-0.7,0.2-0.9,0.7-1.5,1
			c-0.1,1.3,0.2,2.1,0.2,3.2c0.1,0.8,1,1.5,0.5,2.2c-4.3,1-3.5-4.5-7.4-3.2c-0.9,0.5-0.4,2.3-0.2,3.2h-2.7c-1.2-1-1.8-2.6-2.9-3.7
			c-0.4-1.3-0.9-2.5-2-3.2c-1.1,0.1-1.1,1.2-1.7,1.7c0.2,0.8-0.3,2.3,0.2,2.7c-0.6,0.7-1.1-0.9-1.2-1.5c-0.4-0.6-0.6-1.4-1-2
			c-0.2-0.9-0.2-2.1-0.5-2.9c-0.4-0.7-1.1-1-2-1.2c-2.2,0.2-2.5,2.9-2,5.2c-1.8-0.5-2.5-2.1-3.7-3.2c-1-1.2-1.6-2.8-2.5-4.2
			c-0.2-0.9-0.3-1.9-0.5-2.7V90c0.5-2.8,1.7-5,2.9-7.1c3.3-3,7.6-5,13.7-5.2c0.6-0.3,1.4-0.4,2-0.7h4.4c2.1,0.8,4.7,1,7.4,1.2
			c3.8-0.2,7.4-0.8,10.3-2c2.7-1.4,5.1-3.1,7.6-4.7c0.2-0.1,0.4-0.2,0.5-0.5h0.7c1.5,1.3,3.1,2.7,5.6,2.9c0.4,0.6-0.6,1.4-1,2
			c-0.5,0.6-0.7,1.4-1.5,1.7c-0.8,1.4-2.5,1.9-2.9,3.7c0.3,0.9,0.6,1.7,1.5,2c0.7,0.4,1.1,1,1.7,1.5c2.1,0.5,4.5,0.2,6.4-0.2
			c-0.3,1.6-0.3,3.5-0.2,5.4c0.6,1.1,1.5,1.9,2.9,2.2c2-0.3,2.5-2.2,4.4-2.7C107.1,91.6,105.3,91.7,104.8,92.9z M115.1,81.6
			c-0.3,2.3-0.8,4.3-1.5,6.1c-0.3,1-0.8,1.8-1,2.9c-0.6,0.6-0.4,2-1.5,2.2c-0.4-1.3-0.5-2.9-1.2-3.9c0.1-1.9,0-3.5-1-4.4
			c-3-0.3-4.1,1.5-5.6,2.7c-0.6-0.3-0.1-1.7-0.2-2.5c0.4-0.5,0.2-1.6,0.2-2.5c0.6-1,1.5-1.6,1.5-3.2c-0.9-1-3.3-0.3-4.4,0
			c-1.3,0.5-2.3,1.3-3.9,1.5c1.6-2.3,3.9-4.8,2.9-8.8c-0.9-1.3-2.9-1.5-4.7-2c-0.6-0.8-1.5-1.1-2.2-1.7c0.4-0.6,1.9-0.1,2.7-0.2
			c2.7-0.1,5.8,0.3,8.1-0.2c1.2,0,2,0.4,3.4,0.2c0.3,0.5,1.3,0.4,1.7,0.7c0.6,0.1,0.7,0.7,1.5,0.7c-0.1,1.2-0.8,1.7-1,2.7
			c0.2,0.9,0.3,1.8,0.2,2.9c0.1,0.7,0.9,0.6,1.2,1c1.8,0.1,2.5-1,3.9-1.2C115.1,76.5,115.2,79,115.1,81.6z M115.8,68.1
			c-0.9,0.2-0.4-1.3-0.2-1.5c-0.1-0.8,0.2-1.1,0.2-1.7v-3.7c0.4,0.1,0.1,0.7,0.5,0.7C116.2,64.1,116.6,66.7,115.8,68.1z M81,14.9
			h-2.2c-0.3,0.3-1.2,0.1-1.2,0.7c-0.6,0.1-1.2,0.2-1,1c0.4,1.4,2.1,1.5,3.4,2c0.7,0.8,1.7,1.3,2.2,2.2c0.9,1.5,1.3,3.6,1.5,5.9
			c0.2,1,0.5,2,0.5,3.2c-0.2,0.9,0.4,0.9,0.2,1.7c0,0.6,0,1.3,0.7,1.2c2-0.6,1.7-3.3,2.2-5.4v-3.7c-0.6-3.3-1.9-5.7-3.9-7.6
			c-0.7-0.2-1.2-0.6-1.7-1C81.4,15.1,81,15.2,81,14.9z M50.6,58.3c-0.4-0.3-1.4,0-1.7-0.5c-4.5,0-8.2-1-13-0.7
			c-0.2,0.3-0.9,0.1-0.7,0.7c-0.7,0.2,0.3,0.9,0.2,1.2c0.4,0.3,1,0.3,1.2,0.7c1.4,0,2.2,0.5,3.4,0.7c2.1,0.6,4.6,0.8,6.9,1.2
			c2.1,0,4.6,0.3,4.4-2C51.5,58.8,50.7,58.9,50.6,58.3z M31.7,61.7c-0.6,0.3-1.2,0.8-1,2c0.7,1.5,2.9,1.5,4.9,1.7
			c1.9,0.4,4.7,0.5,5.4-1C40.8,61,34.3,62.3,31.7,61.7z"/>
	</g>
</g>
</svg>
