<?xml version="1.0" encoding="utf-8"?>
<!-- Generator: Adobe Illustrator 24.0.0, SVG Export Plug-In . SVG Version: 6.00 Build 0)  -->
<svg version="1.1" id="Capa_1" xmlns="http://www.w3.org/2000/svg" xmlns:xlink="http://www.w3.org/1999/xlink" x="0px" y="0px"
	 viewBox="0 0 107 24" style="enable-background:new 0 0 107 24;" xml:space="preserve">
<style type="text/css">
	.st0{fill-rule:evenodd;clip-rule:evenodd;fill:#FFFFFF;}
	.st1{fill-rule:evenodd;clip-rule:evenodd;fill:#016CA2;}
</style>
<g id="Fondo">
	<path class="st0" d="M-0.1,22.9v-2.1h1.5c0.9,0,1.4-0.3,1.4-2V8c0-1.2-0.3-1.6-1.7-1.6h-1.2V4.4h17.5v7.4h-2
		c-0.4-3.8-0.7-5.3-4.3-5.3H6.5v5.8h1.4c1.6,0,2.3-0.9,2.3-3.1V8.8h2v9.4h-2v-0.7c0-2.3-0.7-3.1-2.3-3.1H6.5v6.5h5.3
		c2.4,0,3.4-1.6,3.6-5.8h2v7.8H-0.1z"/>
	<path class="st0" d="M18.8,22.9v-2.1h1.7c0.7,0,1.2-0.3,1.2-1.2v-12c0-0.8-0.3-1.2-1.4-1.2h-1.5V4.4h9.7v2.1H27
		c-1.2,0-1.6,0.3-1.6,1.3v13.2h4.3c2.7,0,3.4-1.6,3.6-5.9h2v8H18.8z"/>
	<path class="st0" d="M40.5,22.9v-2.1h1.7c0.6,0,1.1-0.2,1.1-1V7.4c0-0.7-0.5-1-1.1-1h-1.7V4.4h10.4c4,0,6.2,1.9,6.2,5.1
		c0,3.4-2.4,5.1-5.9,5.1H47v5.4c0,0.7,0.7,1,1.3,1H50v2.1C50,22.9,40.5,22.9,40.5,22.9z M47.1,12.5h2.4c2.5,0,3.8-0.8,3.8-3
		s-1-3.1-3.8-3.1h-2.4V12.5z"/>
	<path class="st0" d="M54.2,22.9h8.3v-2.1h-2.1c-0.5,0-0.8-0.1-0.8-0.5c0-0.3,0.1-0.4,0.1-0.6l0.9-2.8h6l0.9,2.8
		c0.1,0.2,0.1,0.4,0.1,0.7c0,0.3-0.2,0.4-0.8,0.4h-2.1v2.1h17.9v-2.1h-1.5c-0.9,0-1.3-0.5-1.3-1.4V7.8c0-1.1,0.8-1.3,1.7-1.3h1.2
		V4.4h-9.4v2.1h1.5c1,0,1.3,0.6,1.3,1.3v12.2c0,0.7-0.4,1-1.5,1h-0.7c-1.4,0-2.3-0.2-2.8-1.5l-5.3-15H62l-5,15
		c-0.5,1.3-1.4,1.5-2.8,1.5C54.2,20.9,54.2,22.9,54.2,22.9z M65.7,14.9h-4.5l2.1-6.8h0.1L65.7,14.9z"/>
	<path class="st0" d="M96.4,4.4H98v7.1h-1.9c-0.6-3.1-2.3-5.2-5.4-5.2c-2.5,0-3.5,0.7-3.5,2.5c0,4.2,11.8,1.1,11.8,8.9
		c0,4.5-3.3,5.9-7,5.9c-2,0-4-0.9-5.5-2.2l-0.6,1.6h-1.8v-7.6H86c0.4,3.8,2.5,5.8,6.3,5.8c2.3,0,3.4-1.1,3.4-2.5
		c0-4.8-11.8-1.2-11.8-9.2c0-3.9,3.4-5.6,6.6-5.6c2,0,3.7,1,5,2L96.4,4.4z"/>
	<polygon class="st1" points="82.5,0.5 82.5,2.8 72.9,2.8 	"/>
</g>
<g id="Capa_1_1_">
</g>
</svg>
