<svg id="Capa_1" data-name="Capa 1" xmlns="http://www.w3.org/2000/svg" viewBox="0 0 10382.49 1699.93"><defs><style>.cls-1{fill:#fff;}.cls-2{fill:#791a1d;}</style></defs><title>logo maximmus def</title><path class="cls-1" d="M1665.69,7163.7a139.38,139.38,0,0,0,52.22-101q1.71-26.16,7.85-81.91t13.09-126.29q6.95-70.54,14.79-147.91t14.79-147.91q6.94-70.53,12.17-126.29t6.94-83.62v-12.17q0-13.89.91-30.49t.91-34.14v-24.34a323.17,323.17,0,0,0-9.55-87.16,146.75,146.75,0,0,0-25.26-52.22,79.68,79.68,0,0,0-36.64-26.17,137.5,137.5,0,0,0-43.57-6.94h-62.69a225,225,0,0,1-56.89-6.94,66.75,66.75,0,0,1-42.66-40q3.4-24.36,20.93-24.47h70.09q17.4,0,61,2.62t91,6.14q47.89,3.54,89.77,7.85t57.45,7.86a1036.07,1036.07,0,0,1,100.24,217q37.43,113.78,70.54,230.05t72.36,230.06a1151.17,1151.17,0,0,0,102.39,218.67,2711.26,2711.26,0,0,0,160.31-340.64q68.27-175.1,139.38-349.4,8.76-22.76,23.55-57.46t29.58-68.26q14.79-33.11,37.43-79.64h299.57v22.75A223.7,223.7,0,0,0,2807,6088.64q-54,37.54-54,119.35v50.52q3.52,40,6.94,106.26t7.85,142.9q4.32,76.69,8.76,156.79t8.65,149q4.32,68.84,7.85,117.64a474.59,474.59,0,0,0,6.94,62.69,380.53,380.53,0,0,0,15.7,95.8,143,143,0,0,0,35.72,59.28,148,148,0,0,0,61.9,34.13,593.88,593.88,0,0,0,94.09,18.32v22.75H2512.4a30.59,30.59,0,0,1,16.61-23.55q16.5-11.39,38.34-24.46a401.31,401.31,0,0,0,42.67-29.58,80.86,80.86,0,0,0,28.44-38.57V6785.62q0-17.4-.91-53.13t-2.61-81q-1.71-45.51-4.33-95t-5.23-95.8q-2.62-46.18-5.24-81.91t-4.43-53.25q-12.18,26.17-34.82,79.64t-52.22,122l-62.35,143.92-61.89,143.7q-29.7,68.84-53.13,122.88T2317.16,7016a481.15,481.15,0,0,0-21.73,55.75q-9.55,29.68-21.73,58.36a311.65,311.65,0,0,1-28.78,53.14,134.39,134.39,0,0,1-42.67,40,496.08,496.08,0,0,1-50.51-102.39,329.79,329.79,0,0,1-20.94-113.78,279.63,279.63,0,0,1,12.17-81.91,280.43,280.43,0,0,0,12.18-81.92v-10.7l-45.51,22.76c1.14-2.28,3.18-6.71,6.14-13.09a175,175,0,0,0,7.85-20.93q3.52-11.39,6.15-20.93a61.53,61.53,0,0,0,2.61-14.8v-22.75l-45.51,22.75v-19.11a274.15,274.15,0,0,0,11.38,78.39,276.32,276.32,0,0,1,11.38,78.39v24.35a668.61,668.61,0,0,1-62.8-142.9,328.22,328.22,0,0,1-6.15-156.78l-45.51,22.75a764.31,764.31,0,0,1-35.72-79.64,653.84,653.84,0,0,1-27-87.15,522,522,0,0,1-13.08-89.77,348.14,348.14,0,0,1,6.14-88.86q-1.71,5.23-6.14,15.7a149.58,149.58,0,0,1-9.56,19.12,72.23,72.23,0,0,1-10.47,13.88c-3.52,3.53-6.37,4.09-8.76,1.71a14.11,14.11,0,0,1-10.46-3.53q-19.23,165.54-34.14,323.23t-15.36,323.69q0,34.82.91,71.45a159.29,159.29,0,0,0,14,64.51,86,86,0,0,0,41.87,41.87q28.79,14,84.53,3.53v22.75H1557.61v-22.75a180.34,180.34,0,0,0,108.08-36.64m57.46-55.75q0,22.75,19.11,22.76t19.12-22.76c0-15.13-6.38-22.75-19.12-22.75s-19.11,7.62-19.11,22.75m45.51-1012.59q0,22.76,19.11,22.75t19.12-22.75c0-15.13-6.38-22.76-19.12-22.76s-19.11,7.63-19.11,22.76m14,857.29a174.85,174.85,0,0,0-3.53,40.05V7108a343.4,343.4,0,0,0,1.71,40.05q1.71,14,6.94,5.23a124.93,124.93,0,0,0,7.85-39.25q2.63-28.78,2.62-61.9,0-34.82-2.62-64.51a127.6,127.6,0,0,0-7.85-40q-1.71-8.76-5.23,5.24m8.76-834.65q0,24.47,19.11,24.35t19.12-24.35q0-22.76-19.12-22.75t-19.11,22.75m0,1059.47q0,22.76,19.11,22.75t19.12-22.75q0-24.36-19.12-24.47t-19.11,24.47m8.53-426.88c0,9.33,3.76,13.08,11.38,11.37a11,11,0,1,0-.8-21.84q-10.47-1.71-10.46,10.47m25.25-602.1a54,54,0,0,0,0,33.11q2.57,7.84,7.85,6.14a13.21,13.21,0,0,0,9.56-7.85,37.57,37.57,0,0,0,2.62-14.79q0-20.93-12.18-22.75-5.28-1.71-7.85,6.14m20-87.94q-14,0-11.38,12.17a12.28,12.28,0,0,0,11.38,12.17,13.42,13.42,0,0,0,12.17-12.17q3.42-12.18-12.17-12.17m2.61,225.61a53.81,53.81,0,0,0,0,33.11,7.51,7.51,0,0,0,8.5,6.37,7.7,7.7,0,0,0,1.06-.23c6.94-1.14,10.47-8.65,10.47-22.75s-3.53-20.37-10.47-22.76a7.5,7.5,0,0,0-9.32,5.08,7.87,7.87,0,0,0-.24,1.07m20-63.6c0,10.46,3.75,14.22,11.38,11.37a13.87,13.87,0,0,0,11.37-11.37,12.75,12.75,0,0,0-10.46-12.18,10,10,0,0,0-12.18,12.18m20.94-79.65a210.37,210.37,0,0,0,14,22.76v-69.74a36.48,36.48,0,0,0-22.75,22.75,55.77,55.77,0,0,0,8.76,24.35m5.23,121.05a41.12,41.12,0,0,0,0,33.11c2.28,5.24,5.23,7.28,8.76,6.15q12.18-3.54,12.17-22.76t-12.17-22.75c-3.53-1.14-6.37.91-8.76,6.14m20.93-63.6q0,15.71,11.38,11.38a13.76,13.76,0,0,0,11.38-11.38,11.37,11.37,0,0,0-12.17-12.17c-6.94-1.14-10.47,2.95-10.47,12.17m14,79.64q0,22.76,19.12,22.76t19.22-22.76q0-22.76-19.22-22.75T1929.19,6280m11.38,121.06a53.66,53.66,0,0,0,0,33.11q2.61,7.84,7.85,6.14c8.08-1.14,12.17-8.76,12.17-22.75s-4.09-21.51-12.17-22.76q-5.3-1.71-7.85,6.15m22.75-92.39a53.81,53.81,0,0,0,0,33.11,7.51,7.51,0,0,0,8.5,6.37,6.47,6.47,0,0,0,1.06-.23q10.47-1.71,10.47-22.75,0-19.11-10.47-22.76a7.5,7.5,0,0,0-9.32,5.08,7.87,7.87,0,0,0-.24,1.07m-2.61,166.45q0,15.7,11.38,11.38a13.89,13.89,0,0,0,11.37-11.38,12.76,12.76,0,0,0-10.46-12.18,10,10,0,0,0-12.18,12.18m22.76-92.39c0,10.47,3.75,14.57,11.37,12.18a13.09,13.09,0,0,0,11.38-12.18,12,12,0,0,0-10.47-10.46q-12.16-5.24-12.17,10.46m2.62,133.35a54,54,0,0,0,0,33.11,7.5,7.5,0,0,0,8.49,6.37,7.39,7.39,0,0,0,1.06-.23c6.94-1.14,10.47-8.76,10.47-22.76s-3.53-20.25-10.47-22.75a7.51,7.51,0,0,0-9.32,5.08,7.7,7.7,0,0,0-.23,1.06m20-63.6q0,15.7,12.18,11.38a14.32,14.32,0,0,0,12.17-11.38,13.43,13.43,0,0,0-12.17-12.17q-12.18-3.52-12.18,12.17m0,137.67c0,9.33,4.1,13.09,12.18,11.38a12.29,12.29,0,0,0,12.17-11.38,13.42,13.42,0,0,0-12.17-12.17q-12.18-3.42-12.18,12.17m24.46-69.74c0,9.33,3.76,13.08,11.38,11.37a11,11,0,1,0-.8-21.84q-10.45-1.71-10.46,10.47m25.25,41a51.71,51.71,0,0,0-2.61,16.61,60,60,0,0,0,2.61,17.4c1.71,5.81,4.33,8.2,7.85,6.94a23.53,23.53,0,0,0,12.18-24.34,37.57,37.57,0,0,0-2.62-14.79A13.27,13.27,0,0,0,2064,6555c-3.52-1.14-6.14.91-7.85,6m-3.64,166.9c0,9.33,3.76,13.08,11.38,11.38a11,11,0,1,0-.79-21.85q-10.47-1.7-10.47,10.47m37.43-45.51a99.58,99.58,0,0,0,20,34.82,53.17,53.17,0,0,1,.91-9.56,133,133,0,0,0,.91-14.79,121,121,0,0,0-4.32-34.13,102.44,102.44,0,0,0-20-34.14,53.17,53.17,0,0,1-.91,9.56,114.5,114.5,0,0,0-.91,13.08,129.48,129.48,0,0,0,4.32,34.82m57.46,293.65a53.66,53.66,0,0,0,0,33.11q2.55,7.84,7.85,6.14,12.16-1.69,12.17-22.75t-12.17-22.76c-3.53-1.13-6.15.91-7.85,6.15m20,75.77c0,9.33,3.75,12.52,11.38,9.56a13.86,13.86,0,0,0,11.37-11.38,11.38,11.38,0,0,0-2.61-6.94,16.83,16.83,0,0,0-9.56-5.23c-6.94-1.14-10.47,3.52-10.47,13.88m10.47-128.91c1.14,3.53,2.62,8.42,4.32,14.79s3.76,13.43,6.15,20.94,4.66,14.56,6.94,20.93a36.73,36.73,0,0,0,6.94,13.09,130.35,130.35,0,0,1,.91-16.62,145,145,0,0,0,.91-18.31,228.15,228.15,0,0,0-3.53-43.58A75.53,75.53,0,0,0,2178,6877v45.51Zm24.35,207.41h26.39a45.51,45.51,0,0,0-26.16-45.51v45.51Zm26.17-68.26q0,22.76,19.11,22.75t19.23-22.75q0-24.34-19.23-24.35t-18.89,25.48m51.43-92.38c-5.23,11.38-8.42,19.23-9.56,22.76v22.75a54.5,54.5,0,0,0,13.88-22.75q6.95-17.41,8.76-22.76v-22.75a85.48,85.48,0,0,0-13.08,22.75m41-115q0,22.76,19.11,22.76t19.23-22.76c0-15.13-6.37-22.75-19.23-22.75s-19.11,7.62-19.11,22.75m22.75-69.74q0,22.76,19.23,22.76t19.12-22.76q0-22.76-19.12-22.75T2344,6785.51m41.87-45.51a28.79,28.79,0,0,0,14-9.56,42.26,42.26,0,0,0,8.64-13.08c1.14-6.94,1.71-11.38,1.71-12.17a25.11,25.11,0,0,0-.91-5.24,27.48,27.48,0,0,1-.91-6.94Zm50.52-137.67q0,22.76,19.11,22.76t19.12-22.76q0-24.34-19.12-24.34t-19.68,24.8m22.75-69.74q0,22.76,19.12,22.75t19.11-22.75q0-22.76-19.11-22.76t-19.12,22.76m22.76-45.51q0,22.76,19.11,22.75t19.12-22.75q0-24.36-19.12-24.35t-19.11,24.35m22.75-47c0,15.13,6.38,22.75,19.12,22.75s19.11-7.51,19.11-22.75-6.37-22.76-19.11-22.76-19.12,7.51-19.12,22.76m56.89-95a32.66,32.66,0,0,0-10.47,6.94,23.62,23.62,0,0,0-6.14,10.46,7.85,7.85,0,0,0,3.53,9.56,15.25,15.25,0,0,0,19.23-3.53,17.41,17.41,0,0,0,3.52-20.93,7,7,0,0,0-9.55-2.62m13.08-135.05c0,15.13,6.37,22.76,19.11,22.76s19.12-7.51,19.12-22.76-6.37-22.75-19.12-22.75-19.11,7.62-19.11,22.75m33.11,43.58a33.08,33.08,0,0,0-10.47,6.14,20.85,20.85,0,0,0-6.94,10.47,7.85,7.85,0,0,0,3.53,9.56,17.53,17.53,0,0,0,20.93-3.53,13.77,13.77,0,0,0,1.71-19.12,7.06,7.06,0,0,0-8.65-3.52m-10.47-88.86c0,15.13,6.38,22.75,19.12,22.75s19.11-7.5,19.11-22.75-6.37-22.76-19.11-22.76-19.12,7.63-19.12,22.76m22.76-47.1q0,24.45,19.23,24.34T2658,6118q0-22.76-19.11-22.76T2619.69,6118m30.15,127.42c0,10.47,3.75,14.57,11.38,12.18a13.08,13.08,0,0,0,11.37-12.18,15,15,0,0,0-10.46-12.17,10,10,0,0,0-12.18,12.17m2.62,102.4q-2.61,30.49-2.62,70.54t2.62,72.36q2.61,32.2,9.56,20a91.24,91.24,0,0,0,6.94-35.73q1.69-27,1.7-56.89t-1.7-54.95a123.15,123.15,0,0,0-6.94-37.43q-7.07-8.66-9.56,21.73m9.56,806h22.75V6671.05Zm3.52-1080.86q0,22.76,19.12,22.76t19.11-22.76q0-22.76-19.11-22.75t-19.12,22.75m41.87,482.75,22.76-460h-22.76Zm3.53,622.11q0,22.76,19.11,22.76t19.12-22.76q0-24.35-19.12-24.46t-19.11,24.46m14-527.11q-1.7,9.56-3.52,29.58t-1.6,48v116.73a601.37,601.37,0,0,0,2.62,64.51q2.63,22.76,7.85,14a169.36,169.36,0,0,0,8.76-55q1.71-39.25,1.71-82.72t-1.71-82.83a169.29,169.29,0,0,0-8.76-54.84q-3.53-6.93-5.23,2.62m27.87,480a14.68,14.68,0,0,0,8.76,12.17q8.65,5.24,15.7,10.47a47.27,47.27,0,0,0,10.47,3.52,20.25,20.25,0,0,0,6.15-1.7,20.12,20.12,0,0,1,6.14-1.71,368.44,368.44,0,0,1-28.79-89.77q-9.55-49.71-18.31-93.18v160.31Z" transform="translate(-1512.1 -5547.99)"/><path class="cls-1" d="M3179,7171.66q27-7.84,62.69-17.41a332.3,332.3,0,0,0,71.45-28.78,164.54,164.54,0,0,0,61.9-62.69q109.78-256.11,205.59-506.18t206.95-506.41a106.39,106.39,0,0,0,14-26.17q6.93-17.42,8.76-20.94c6.94-1.13,11.37-1.7,12.17-1.7a246.68,246.68,0,0,1,18.32,41q16.5,41,41,104.56t54,139.37q29.58,75.78,55.75,144.61t46.31,123q20,54,27,71.45l160.31,437.34a130.51,130.51,0,0,0,36.86,52.11,661.91,661.91,0,0,0,58.37,48.81q30.49,22.76,54,38.34t23.55,20.94H4009.33a32.44,32.44,0,0,1,12.17-27,212.56,212.56,0,0,1,27.88-18.31,125.25,125.25,0,0,0,27.87-20.94,49.71,49.71,0,0,0,12.18-36.63,500.18,500.18,0,0,0-13.09-108.88,429.16,429.16,0,0,0-40.05-108.89,263.63,263.63,0,0,0-68.26-83.62,155.19,155.19,0,0,0-99.33-33.11h-10.46q-14,0-50.52,2.62t-77.59,6.14q-41,3.52-76.69,7.85t-47.9,6.15A1256.33,1256.33,0,0,0,3541,6948.55a411.64,411.64,0,0,0-29.58,150.75q0,31.39,14,41.87a110.35,110.35,0,0,0,33.1,16.61q19.13,6.15,38.35,13.08a59.5,59.5,0,0,1,31.4,29.59l-22.76,22.75-460-22.75a45.53,45.53,0,0,1,34.14-28.79m231.75-95.8q-6.14,9.55-13.08,20l-14,20.93q-6.95,10.47-8.76,14a70.35,70.35,0,0,0-3.53,12.17,12.91,12.91,0,0,0,1.71,5.23,13.92,13.92,0,0,1,1.7,5.24,84.3,84.3,0,0,0,32.2-33.11,92.81,92.81,0,0,0,13.08-47v-10.47a83.38,83.38,0,0,0-9.55,13.09m-9.56,102.39q0,22.76,19.11,22.76t19.12-22.76q0-24.34-19.12-24.35t-20,23.67M3478.34,6919q-6.14,13.08-13.08,27.08c-4.66,9.33-9,18.31-13.08,27s-7.29,15.36-9.56,20v22.75c2.27-4.66,5.46-11.38,9.56-20a280.53,280.53,0,0,1,14-26.17,288.29,288.29,0,0,0,13.88-26.17c4.1-8.76,7.28-15.36,9.56-20v-22.76a66.71,66.71,0,0,0-11.38,18.32m-13.08,234.37v-22.75h-22.76ZM3446,7085.08q0,22.76,19.12,22.75t19.22-22.75q0-22.76-19.22-22.76T3446,7085.08m69.75-299.68q0,22.76,19.11,22.75T3554,6785.4q0-22.76-19.11-22.76t-19.11,22.76m22.75-45.51q0,22.76,19.11,22.75t19.12-22.75q0-22.76-19.12-22.76t-19.11,22.76m22.76-47q0,24.47,19.11,24.35t19.11-24.35q0-22.76-19.11-22.76t-19.11,22.76m47.1-137.67q0,22.76,19.11,22.76t19.12-22.76q0-22.75-19.12-22.75t-19.11,22.75m264,156a210.82,210.82,0,0,0-49.61-4.33h-69.29q-26.17,0-51.43.91t-45.51,2.62c-13.42,1.14-22.75,2.39-28.78,3.53s-5.8,2.39,0,3.52a202.4,202.4,0,0,0,49.61,7.85q35.72,2.63,75.77,2.62,41.86,0,77.59-2.62a202.72,202.72,0,0,0,49.72-7.85q8.65-1.7-7.85-6.14m-241.31-201.27q0,22.75,19.11,22.76t19.11-22.76q0-22.76-19.11-22.75t-19.11,22.75m115-102.39q-20.93,47.9-39.25,96.7t-33.22,93.87q-14.79,44.37-23.55,72.36h275.33q-3.53-10.47-13.08-41t-20.94-63.6q-11.37-33.1-20.93-62.69t-13.09-40.05q-12.16-36.63-21.73-60.07A483,483,0,0,0,3814,6357a81.94,81.94,0,0,0-26.17-31.41,729.5,729.5,0,0,0-41.87,82.83m22.76-243.13q0,22.76,19.11,22.75t19.11-22.75q0-22.76-19.11-22.76t-19.11,22.76m56.88-40.05a150.16,150.16,0,0,0,0,55.75c1.71,8.19,4.9,10.47,9.56,6.94a48,48,0,0,0,10.47-34.82,56.93,56.93,0,0,0-10.47-34.81c-4.66-3.53-7.85-1.14-9.56,6.94M3823,6290.82c0,11.38,3.75,15.93,11.37,13.08a14.33,14.33,0,0,0,11.38-13.08,12.06,12.06,0,0,0-10.47-10.47,9.32,9.32,0,0,0-11.82,5.85,9.42,9.42,0,0,0-.35,4.62m22.75,69.74c0,10.47,3.76,14.23,11.38,11.38a13.87,13.87,0,0,0,11.38-11.38,12.74,12.74,0,0,0-10.47-12.17,10,10,0,0,0-12.17,12.17m12.17-127.2a60.9,60.9,0,0,0,2.62,14.79c1.71,6.38,3.75,13.43,6.14,20.94s4.67,14.56,6.94,20.93a36.89,36.89,0,0,0,6.94,13.09,130.14,130.14,0,0,1,.91-16.61,145.18,145.18,0,0,0,.91-18.32,223.81,223.81,0,0,0-2.61-33.11,30.17,30.17,0,0,0-21.85-24.35v22.64Zm10.47,172.49q0,15.69,12.17,12.17a13.43,13.43,0,0,0,12.18-12.17,13.07,13.07,0,0,0-12.18-10.47q-12.16-3.53-12.17,10.47m15.7,81.91q0,22.76,19.23,22.76t19.11-22.76q0-24.35-19.11-24.34t-19.23,24.34m8.76-149.84q0,15.7,11.38,11.38a13.89,13.89,0,0,0,11.38-11.38,11.46,11.46,0,0,0-2.62-6.94,16.89,16.89,0,0,0-9.56-5.23q-10.47-1.71-10.47,12.17m22.76,207.41c0,9.33,3.75,13.09,11.38,11.38a11.78,11.78,0,1,0-.91-23.55h0q-10.47-1.71-10.47,12.17m20.93-69.74a406.47,406.47,0,0,0,36.64,57.57,53.24,53.24,0,0,1,.91-9.56,134.13,134.13,0,0,0-11.38-71.45,449.38,449.38,0,0,0-36.63-56.89,53.17,53.17,0,0,1-.91,9.56,114.52,114.52,0,0,0-.91,13.09,127,127,0,0,0,12.17,57.45m1.14,229.83q-15.71,0-11.38,11.37a13.76,13.76,0,0,0,11.38,11.38,12.74,12.74,0,0,0,12.17-10.47,10,10,0,0,0-12.17-12.17m0-92.39c0,9.33,3.75,13.09,11.38,11.38a11.37,11.37,0,0,0,11.37-11.38,12.16,12.16,0,0,0-10.46-10.46q-12.18-5.23-12.18,10.46m22.76,47.11c0,9.33,3.75,13.08,11.37,11.38A11.38,11.38,0,0,0,3983.5,6660a12.75,12.75,0,0,0-10.47-12.18,10,10,0,0,0-12.17,12.18m22.75-92.39c0,9.33,4.1,13.09,12.18,11.38a12.28,12.28,0,0,0,12.17-11.38,13.42,13.42,0,0,0-12.17-12.17q-12.18-3.53-12.18,12.17m15.71,217.88q0,22.76,19.11,22.76t19.11-22.76q0-22.76-19.11-22.75t-19.11,22.75m8.76-149.84c0,9.33,3.75,13.08,11.37,11.38a11,11,0,1,0-.79-21.85q-10.47-1.71-10.47,10.47m22.75,230.05c0,9.33,3.76,13.09,11.38,11.38a11,11,0,1,0-.79-21.85q-10.47-1.69-10.47,10.47M4044.14,6752a93,93,0,0,0,21.73,34.13,53.24,53.24,0,0,1,.91-9.56,121.77,121.77,0,0,0,.91-13.08,110,110,0,0,0-5.23-34.82,115.26,115.26,0,0,0-20.93-34.81,94.2,94.2,0,0,1-.91,10.47,109.05,109.05,0,0,0-.91,13.88,120,120,0,0,0,4.32,34.13m23.55,207.41a119.53,119.53,0,0,0,20.93,34.13,53.24,53.24,0,0,1,.91-9.56,121.77,121.77,0,0,0,.91-13.08,128.49,128.49,0,0,0-4.32-35.72,103.22,103.22,0,0,0-20-34.14,73.62,73.62,0,0,1-1.71,9.56,62,62,0,0,0-1.71,13.08,108,108,0,0,0,5.24,35.73m11.37-143.81a60.74,60.74,0,0,0-2.61,17.41,52.07,52.07,0,0,0,2.61,16.61,7.51,7.51,0,0,0,8.5,6.37,7.7,7.7,0,0,0,1.06-.23,13,13,0,0,0,7.85-7.85,37.57,37.57,0,0,0,2.62-14.79q0-20.94-10.47-24.35a7.72,7.72,0,0,0-9.35,5.67,7.83,7.83,0,0,0-.21,1.27M4163,7047.87a80.37,80.37,0,0,1,17.4,37.44,53.17,53.17,0,0,1,.91-9.56A134.61,134.61,0,0,0,4170,7004.3a451.28,451.28,0,0,0-36.64-56.89l-45.51,91A30.41,30.41,0,0,1,4107,7019.2a28.1,28.1,0,0,1,26.16-3.52,110,110,0,0,1,29.59,32.19m-64.51-157.69c0,9.33,4.09,13.09,12.17,11.38a12.28,12.28,0,0,0,12.17-11.38,13.42,13.42,0,0,0-12.17-12.17q-12.18-3.42-12.17,12.17m38.34,269.19q5.24,20,31.4,20a23.21,23.21,0,0,0,5.23-.91,29,29,0,0,1,6.94-.91l-47.1-92.39a130.14,130.14,0,0,1-.91,16.61,145.18,145.18,0,0,0-.91,18.32,154.75,154.75,0,0,0,5.23,39.25m54.05-39.25c0,10.47,3.75,14.22,11.37,11.38a13.87,13.87,0,0,0,11.38-11.38,12.74,12.74,0,0,0-10.47-12.17,10,10,0,0,0-12.17,12.17" transform="translate(-1512.1 -5547.99)"/><path class="cls-1" d="M5046.15,6348.16q0,24.47,19.12,24.35a15,15,0,0,0,15.7-12.17c0,3.52.57,5.23,1.7,5.23s1.71,2.39,1.71,6.94h57.12a175.34,175.34,0,0,1-5.24,38.34,38.11,38.11,0,0,1-24.35,29.7v-26.17a111.28,111.28,0,0,0-11.37,1.71,88.63,88.63,0,0,1-13.09,1.7c-3.52-1.14-11.37-4.32-22.75-9.56a85.26,85.26,0,0,1-22.76-13.08v22.76l45.51,92.38v22.76q-19.23-15.71-43.57-40.05a482.9,482.9,0,0,1-45.51-52.23,457.08,457.08,0,0,1-35.73-55,102.45,102.45,0,0,1-14.79-47.9,36.39,36.39,0,0,1,.91-6.14,35.52,35.52,0,0,0,.91-6.15l69.75,47.11a147.59,147.59,0,0,0,13.08-23.55,151.36,151.36,0,0,0,9.56-23.56v-22.75l-45.51,22.75v-73.27a87.77,87.77,0,0,1-29.58-3.52,15.7,15.7,0,0,1-10.47-11.38,61.8,61.8,0,0,1,0-20.93,254.76,254.76,0,0,0,1.71-32.2,56,56,0,0,0-19.12,2.61,35.58,35.58,0,0,1-12.17,2.62,15.13,15.13,0,0,1-10.47-5.23,77.48,77.48,0,0,1-12.17-19.12,36.64,36.64,0,0,0,22.75-22.75,56.32,56.32,0,0,0-8.76-24.35,219.89,219.89,0,0,0-14-22.75l-22.76,47.1q-6.94-24.35-25.26-25.26t-34.13-.91a217.87,217.87,0,0,0-34.13,2.62,26.4,26.4,0,0,0-21.73,21.84v-47.1a465.2,465.2,0,0,1-54-4.32q-34.93-4.34-71.46-12.18a412.24,412.24,0,0,1-67.12-20q-30.49-12.18-37.43-29.58h460L5019,6050.3a50.9,50.9,0,0,0-28.78.91,31.42,31.42,0,0,0-14.79,13.88,51.52,51.52,0,0,0-6.15,20.94c-.57,7.51-.91,14.79-.91,21.73a137.93,137.93,0,0,0,14,62.69,377.93,377.93,0,0,0,32.19,53.13q18.31,25.26,35.73,51.43a211.81,211.81,0,0,1,26.17,54,17.16,17.16,0,0,0-12.18-3.53q-19.23,0-19.11,22.76m134.14,230.05v-68.27l-45.51,22.76a81.82,81.82,0,0,1,16.5-37.43,102.29,102.29,0,0,1,28.78-32.2q6.95-1.71,23.55,11.38a50.23,50.23,0,0,0,23.55,13.08q8.65,0,27.88-22.75a535,535,0,0,0,41.87-58.37q22.76-35.73,47.9-78.39t47.1-83.63q21.73-41,39.25-75t26.17-51.43a92.47,92.47,0,0,0,1.71-10.47,29.35,29.35,0,0,0-13.09-26.16,161.65,161.65,0,0,0-27.87-14.79,205.74,205.74,0,0,1-27.88-13.89,27.17,27.17,0,0,1-13.08-25.25h55.75q22.76,0,81.92,2.61t125.15,6.15q66.21,3.52,125.15,6.94t81.92,6.94v14q-27.89,0-66.22.91a535.36,535.36,0,0,0-78.39,7.85,312.13,312.13,0,0,0-75,22.76,129.25,129.25,0,0,0-55.75,47.1L5271,6555.8a95.21,95.21,0,0,1,2.62,20,256.05,256.05,0,0,1,0,29.58,76.51,76.51,0,0,1-6.94,27.87,23.44,23.44,0,0,1-18.32,14.79v-22.75h-22.75v92.38a127.37,127.37,0,0,0-19.12-15.7,240,240,0,0,1-24.35-19.11,276.15,276.15,0,0,1-55.75,115q-45.51,59.28-95,120.26a1491.76,1491.76,0,0,0-89.77,122,213.94,213.94,0,0,0-40,116.73,53.22,53.22,0,0,0,13.88,41.87,159.26,159.26,0,0,0,55.75,24.35h-413a324.68,324.68,0,0,0,128.9-47.11,530.77,530.77,0,0,0,106.27-89.76,1021.38,1021.38,0,0,0,91-115.94q42.66-62.69,82.71-126.29t83.4-122.88a686.55,686.55,0,0,1,87.94-104.55,87,87,0,0,1-6.94-38.35h48.81Zm-401.85,619.38a129.42,129.42,0,0,0,34.81,4.33q48.81,0,48.81-48.81a52.6,52.6,0,0,0-1.7-12.17,50.36,50.36,0,0,1-1.71-8.77,83.82,83.82,0,0,0-10.47,22.76A58.39,58.39,0,0,1,4835,7177.8c-1.14,1.14-3.19,0-6.15-4.32a12.15,12.15,0,0,0-9.55-6,5.69,5.69,0,0,0-4.33-5.23,6.37,6.37,0,0,1-2.7-8.6l.09-.16a333.14,333.14,0,0,1,44.37-50.52q30.49-29.58,61.89-62.69a700.36,700.36,0,0,0,55.75-66.22,105.66,105.66,0,0,0,24.35-61,38.54,38.54,0,0,0-.91-6.14,34.44,34.44,0,0,1-.91-6.15,803.64,803.64,0,0,0-66.22,67.13q-31.4,35.73-61,72.36t-61,71.45a891.63,891.63,0,0,1-66.22,66.22,99.33,99.33,0,0,0,34.82,20m-10.47-1056.85v24.35a29.09,29.09,0,0,1,0-24.35m51.42,23.55a38.66,38.66,0,0,1,6.15-.91,97,97,0,0,1,10.46,1.71,30.81,30.81,0,0,1,9.56,8.76c5.24,5.8,9.56,10.47,13.09,13.88a249.7,249.7,0,0,1,20,23.55q11.39,14.79,21.85,29.58l18.31,26.17a149.57,149.57,0,0,0,9.56,13.09,92.29,92.29,0,0,1,1.71,10.46,29.42,29.42,0,0,1-.91,6.94,22.22,22.22,0,0,0-.91,5.24,670.39,670.39,0,0,1-65.31-63.6,311,311,0,0,1-49.72-74.07,34.34,34.34,0,0,0,6.14-.91m28.79-103.65c-9.33,0-13.08,4.1-11.38,12.18a12.28,12.28,0,0,0,11.38,12.17,13.09,13.09,0,0,0,10.47-12.17q5.23-12.18-10.47-12.18m153.37,219.59q0,22.76,19.11,22.75t19.11-22.75q0-22.76-19.11-22.76t-19.11,22.76M5105,6676.06q-12.18,14-25.26,31.4t-23.55,34.13a59.11,59.11,0,0,0-10.47,21.85q0,22.76,19.11,22.75t19.12-22.75a75.7,75.7,0,0,1,6.94-21.85q6.93-16.48,14.79-34.13t13.08-31.4q5.23-13.87,1.71-13.88a41.27,41.27,0,0,0-15.7,13.88m-25.26-325.85q-.91-6.95-2.62-20.93a55,55,0,0,1,5.24,9.55,26,26,0,0,1,1.7,9.56,13.63,13.63,0,0,1-3.52,12.17,94,94,0,0,0-.91-10.46m51.42,205.59q0,22.76-19.11,22.75t-19.12-22.75q0-22.75,19.12-22.76t19.11,22.76m3.53-68.27a29,29,0,0,0-.91-6.94,22.66,22.66,0,0,1-.91-5.23c0-1.14.57-5.24,1.7-12.18a53.07,53.07,0,0,1,22.76-22.75Zm95.8,45.51q0,22.76,19.11,22.76t19.11-22.76q0-22.76-19.11-22.75t-19.11,22.75m29.58,217.77a11.38,11.38,0,0,1-11.38,11.37c-7.51,1.71-11.38-2-11.38-11.37a9.33,9.33,0,0,1,12.18-10.47,12.16,12.16,0,0,1,10.46,10.47m12.18-57.46a25,25,0,0,0-.91-5.23,22.75,22.75,0,0,1-.91-5.24c0-1.14.57-5.23,1.7-12.17A52.54,52.54,0,0,1,5294.3,6648Zm97.27,115q0,24.45,19.23,24.34h3.53q0,22.76,19.11,22.76a22.72,22.72,0,0,0,12.18-1.71v1.71h38.34a111.28,111.28,0,0,1-1.71,11.38,106,106,0,0,0-1.7,11.37,146.82,146.82,0,0,0-10.47,22.76,54.3,54.3,0,0,1-14,22.75c-2.38-2.27-6.37-6.94-12.17-13.88s-12.51-14.22-20-21.84a282,282,0,0,0-21.85-20c-7.05-5.8-11.38-9.9-14-12.17q-6.94-1.71-23.55,11.38t-23.56,11.37a14.68,14.68,0,0,1-8.76-8.76l-12.17-20-14-22.76q-7.07-11.37-10.47-18.31a84.29,84.29,0,0,1-1.71-10.47,35.26,35.26,0,0,1,.91-6.14,37.55,37.55,0,0,0,.91-6.15l69.75,47.1v-24.34l-24.35-45.51v-22.76q3.41-6.93,10.47-23.55a75.11,75.11,0,0,1,14-23.55,32.44,32.44,0,0,1,20,13.88,35.56,35.56,0,0,1,3.53,19.11,79.67,79.67,0,0,1-5.23,21.73,60.62,60.62,0,0,0-4.33,21.85q40.05,0,52.34,10.47a46.39,46.39,0,0,1,14,33.11c-10.46-3.53-14.56-5.24-12.17-5.24h-3.53q0-22.76-19.11-22.75t-19.23,22.75m-54-91q0,22.76-19.12,22.76T5277,6717.13q0-24.35,19.11-24.35t19.12,24.35M5338,6670q0,22.76-19.11,22.75T5299.76,6670q0-22.76,19.11-22.76T5338,6670m-14.44,70.2q0,22.76,19.11,22.75t19.11-22.75q0-22.75-19.11-22.76t-19.11,22.76m52.33,172.48a11.38,11.38,0,0,1-11.38,11.38c-7.62,1.7-11.37-2.05-11.37-11.38a10,10,0,0,1,7.23-12.17,9.84,9.84,0,0,1,4.94,0,12.74,12.74,0,0,1,10.47,12.17m31.4,34.82q0,22.74-19.11,22.75t-19.23-22.75q0-24.36,19.23-24.35t19.11,24.35m0-139.38a22.76,22.76,0,0,1-15.7,24.35q0-20.94,15.7-24.35m146.43,277c0,15.13,6.37,22.76,19.11,22.76h3.53c0,15.13,6.37,22.75,19.11,22.75a18.27,18.27,0,0,0,10.47-1.7v12.17a212.94,212.94,0,0,1,72.25,12.17q34.13,12.18,67.12,25.26a449.63,449.63,0,0,0,68.27,20.94,212.47,212.47,0,0,0,79.64.91l-22.75,22.75h-413a25.72,25.72,0,0,0,23.56-24.35q.79-19.11.91-33.11a179.89,179.89,0,0,0-.91-20,139.9,139.9,0,0,1-.91-14.79c0-1.14-5-10.13-11.38-23.55s-13.65-27.88-21.73-43.58-15.7-30.49-22.76-44.48-11.37-22.76-13.88-26.17v-22.76l47,22.76a101.28,101.28,0,0,0,14-21.73,62.28,62.28,0,0,0,8.76-23.55,34.71,34.71,0,0,0-22.76-24.47l45.51-22.75,45.51,92.38v22.76a36.62,36.62,0,0,1-22.75,22.75v-22.75h-41.87a73.89,73.89,0,0,1-2.62,11.38,15.55,15.55,0,0,0-.91,11.37,142.48,142.48,0,0,0,11.38,28.79q9.55,20,20.93,41.87l21.85,41.87c6.94,13.42,11.37,22.75,13.88,27.08q0-8.77-.91-23.56c-.57-9.89-.91-21.16-.91-34.13s0-24.35.91-34.81.91-18,.91-22.76a32.66,32.66,0,0,1,24.34-24.35,126.72,126.72,0,0,1,35.5,25,33.27,33.27,0,0,1,9.56,20L5614,7101a19.56,19.56,0,0,0-19.11-15.7h-3.53q0-22.76-19.11-22.76c-12.75,0-19.12,7.62-19.12,22.76M5428,6844a53.41,53.41,0,0,1-5.23,9.56V6813.5a26.08,26.08,0,0,1,6.94,19.11A31.2,31.2,0,0,1,5428,6844m128.91-743.17a459.83,459.83,0,0,0-37.44,34.13,493.61,493.61,0,0,0-34.81,38.34q-14.79,18.31-4.32,14.79a65.19,65.19,0,0,0,23.55-13.08,239.5,239.5,0,0,0,28.78-26.17q13.89-14.79,25.26-28.79a83.16,83.16,0,0,0,14.79-24.34q1.71-8.65-15.7,5.23m-73.16,869.58q0,22.76,19.12,22.75t19.23-22.75c0-15-6.38-22.76-19.23-22.76s-19.12,7.63-19.12,22.76m6.94-862.53q0,15.7,12.18,11.38a14.32,14.32,0,0,0,12.17-11.38,13.42,13.42,0,0,0-12.17-12.17q-12.18-3.53-12.18,12.17m38.35-34.81q0,22.76,19.11,22.75t19.11-22.75q0-22.76-19.11-22.76t-19.11,22.76m115,1094.28a152.09,152.09,0,0,0-42.66,6.94,38,38,0,0,0-28.79,26.17h91v-33.11h-19.57Zm-52.34-81.92a20,20,0,0,1-15.7,22.76,20,20,0,0,1,15.7-22.76m16.62,28.79c1.7-4.1,3.75-8.42,6.14-13.09v6.94a28.53,28.53,0,0,1-8.65,20.94,37.57,37.57,0,0,1,2.62-14.79" transform="translate(-1512.1 -5547.99)"/><path class="cls-1" d="M6111.76,7184.63a100.56,100.56,0,0,0,58.37-54,998.07,998.07,0,0,0,19.11-146.32q5.23-81.92,6.94-164.63t0-158.6q-1.69-75.77-1.7-128.11v-79.64q0-61-.91-127.2t-.91-123.67v-83.63a97.42,97.42,0,0,0-58.37-53.13,289.27,289.27,0,0,0-79.64-14.79v-22.75h482.74v22.75q-109.79-1.71-147.22,50.52t-37.43,156.78v827.7a105.17,105.17,0,0,0,14.79,55.75,128.58,128.58,0,0,0,88.86,61,141.57,141.57,0,0,0,58.36-1.71v22.76H6055.1l-22.75-22.76a269.2,269.2,0,0,0,79.64-15.7m119.35-334.61q-3.53,45.51-6.94,95.8t-6.14,96.71q-2.62,46.18-2.62,65.3v22.76h22.75q3.54-17.41,7.86-59.28t7.85-88.86q3.4-47.1,6-89.77t2.61-60.18c0-4.67,0-12.52.91-23.55s.91-18.89.91-23.55H6238.4q-3.54,19.21-6.94,64.51m-12.18-754.56q0,22.76,19.12,22.76t19.11-22.76c0-15-6.37-22.75-19.11-22.75s-19.12,7.62-19.12,22.75m60,1073a77.29,77.29,0,0,0-16.61-1.71,89.21,89.21,0,0,0-17.41,1.71q-8.76,1.71-6.94,8.76,1.71,10.47,24.35,10.47,19.11,0,22.75-10.47a6.6,6.6,0,0,0-4.07-8.4,6.67,6.67,0,0,0-2.07-.36m-22.76-1045.59q-2.61,17.41-4.32,52.34t-1.71,83.62v200.36q0,48.81,1.71,84.54t4.32,53.13q2.63,17.4,6.15,5.23a694.66,694.66,0,0,0,6.94-95.8q1.71-68.27,1.7-144.6,0-78.39-1.7-147.23a701.76,701.76,0,0,0-6.94-96.71q-3.53-12.17-6.15,5.24M6253,6676.74a52.08,52.08,0,0,0-2.62,16.61,60.4,60.4,0,0,0,2.62,17.41,7.73,7.73,0,0,0,9.55,6.94Q6273,6716,6273,6693.35q0-19.11-10.47-22.75a7.5,7.5,0,0,0-9.33,5.06,6.48,6.48,0,0,0-.22,1m13.08-603.8q0,22.76,19.12,22.75t19.11-22.75q0-22.76-19.11-22.76T6266,6072.83m19.12,1058.1h22.75v-92.39Zm22.75-712.68,22.76-322.33-22.76,22.76v299.57Zm3.53,735.32q0,24.47,19.11,24.46t19.12-24.46q0-22.76-19.12-22.75t-19.11,22.75" transform="translate(-1512.1 -5547.99)"/><path class="cls-1" d="M6776.55,7163.7a147.94,147.94,0,0,0,52.22-101q1.71-26.16,6.94-81.91t12.17-126.29q6.95-70.54,14.79-147.91t14.79-147.91q6.95-70.53,12.18-126.29t6.94-83.62v-12.17c0-9.22,0-19.46.91-30.49s.91-22.76.91-34.14v-24.34q0-73.17-13.08-108.09a94.79,94.79,0,0,0-33.11-47.9,73.39,73.39,0,0,0-46.2-11.38q-26.16,1.71-52.22,2.62a140.73,140.73,0,0,1-49.6-6.94,71.46,71.46,0,0,1-39.26-41q1.71-22.75,20.94-22.75h71.22q17.41,0,53.13.91t75,3.52l75,5.24a398.37,398.37,0,0,1,51.42,6.14,1069.86,1069.86,0,0,1,101,217Q7151,6358.74,7184.09,6475t71.45,230a1111.19,1111.19,0,0,0,101,218.68q47-81.93,86.24-167.25t75-172.48q35.73-87.15,69.74-175.1t68.27-175.1q8.76-22.76,23.55-57.46t29.58-68.26q14.79-33.11,37.43-79.64H8046v22.75a219.59,219.59,0,0,0-128.45,36.52q-53.13,37.55-53.13,119.35v50.52q1.7,40,5.23,106.26t7.85,142.9q4.32,76.69,8.76,156.78t8.76,149.05q4.33,68.83,7.85,117.64a1329.15,1329.15,0,0,0,23.44,158.49,136.52,136.52,0,0,0,34.82,59.28,147.92,147.92,0,0,0,61.89,34.13,595,595,0,0,0,94.09,18.32v22.75H7621.78a30.58,30.58,0,0,1,17.4-23.55q17.41-11.38,39.26-24.46a401.18,401.18,0,0,0,42.66-29.58,69.56,69.56,0,0,0,26.17-37.44V6785.62q0-17.4-.91-53.13t-2.62-81q-1.82-45.51-4.32-95t-5.24-95.8q-2.61-46.18-5.23-81.91t-4.78-53.25q-12.16,26.17-34.81,79.64t-52.34,122l-61.55,143.92-61.89,143.7q-29.7,68.84-53.14,122.88T7426.31,7016q-10.47,26.16-20.93,55.75t-22.76,58.36a312,312,0,0,1-28.78,53.14,134.39,134.39,0,0,1-42.67,40,497.09,497.09,0,0,1-50.51-102.39,329.79,329.79,0,0,1-20.94-113.78,279.63,279.63,0,0,1,12.17-81.91,280.09,280.09,0,0,0,12.18-81.92v-10.7l-45.51,22.76c1.14-2.28,3.19-6.71,6.14-13.09a175,175,0,0,0,7.85-20.93c2.28-7.51,4.33-14.45,6.15-20.93a61,61,0,0,0,2.61-14.8v-22.75l-45.51,22.75v-19.11a274.85,274.85,0,0,0,11.38,78.39,275.61,275.61,0,0,1,11.38,78.39v24.35a669.82,669.82,0,0,1-63.26-142.9,328.47,328.47,0,0,1-6.14-156.78l-45.51,22.75a767.42,767.42,0,0,1-35.73-79.64,655.27,655.27,0,0,1-27-87.15,524,524,0,0,1-13.09-89.77,348.14,348.14,0,0,1,6.15-88.86q-1.71,5.29-6.15,15.7a148.22,148.22,0,0,1-9.55,19.12,72.23,72.23,0,0,1-10.47,13.88c-3.53,3.53-5.8,4.09-6.94,1.71a17,17,0,0,1-12.17-3.53q-19.23,165.54-34.14,323.23t-14.79,323.23q0,34.81.91,71.45a159.26,159.26,0,0,0,14,64.51,86.1,86.1,0,0,0,41.87,41.87q28.78,14,84.53,3.53v22.76H6666.75V7200a177.84,177.84,0,0,0,109.8-36.64m57.45-55.74q0,22.76,17.41,22.75,19.11,0,19.11-22.75c0-15.14-6.37-22.76-19.11-22.76s-17.41,7.62-17.41,22.76M6879.51,6095q0,22.76,17.41,22.76,19.11,0,19.11-22.76c0-15.13-6.37-22.75-19.11-22.75s-17.41,7.62-17.41,22.75m12.18,857.29a174.3,174.3,0,0,0-3.53,40.05V7108a231.4,231.4,0,0,0,2.62,40.05q2.61,14,6,5.23a125.49,125.49,0,0,0,7.85-39.25q2.61-28.78,2.61-61.9,0-34.82-2.61-64.51a128.17,128.17,0,0,0-7.85-40q-1.71-8.76-5.24,5.24M6902,6118.11q0,24.47,17.41,24.35,19.11,0,19.11-24.35,0-22.76-19.11-22.75-17.41,0-17.41,22.75m0,1059.47q0,22.76,17.41,22.75,19.11,0,19.11-22.75,0-24.36-19.11-24.47-17.41,0-17.41,24.47M6909,6750.7c0,9.33,3.75,13.08,11.38,11.37a11,11,0,1,0-.8-21.84q-10.47-3.42-10.47,10.47m26.17-602.1a41.2,41.2,0,0,0,0,33.11c2.28,5.23,5.24,7.28,8.76,6.14a12.93,12.93,0,0,0,7.85-7.85,37.21,37.21,0,0,0,2.62-14.79q0-19.11-10.47-22.75c-3.52-1.14-6.37.91-8.76,6.14m19.23-87.94c-9.33,0-13.08,4.09-11.38,12.17a12.28,12.28,0,0,0,11.38,12.17,13.42,13.42,0,0,0,12.17-12.17q3.53-12.18-12.17-12.17m3.41,225.61a41.2,41.2,0,0,0,0,33.11c2.28,5.23,5.24,7.28,8.76,6.14,6.94-1.14,10.47-8.65,10.47-22.75s-3.53-20.37-10.47-22.76c-3.52-1.14-6.37.91-8.76,6.15m19.12-63.6q0,15.69,12.17,11.37a14.33,14.33,0,0,0,12.17-11.37,13.42,13.42,0,0,0-12.17-12.18Q6977,6207,6977,6222.56m21.73-79.65q9.56,15.7,13.08,22.76v-69.74a29.1,29.1,0,0,0-13.08,8.76,23.53,23.53,0,0,0-9.56,14,52.76,52.76,0,0,0,9.56,24.35m6.14,121.05a41.12,41.12,0,0,0,0,33.11c2.28,5.24,4.67,7.28,6.94,6.15a13.21,13.21,0,0,0,9.56-7.85,37.09,37.09,0,0,0,2.61-14.79c0-14-4.09-21.51-12.17-22.76-2.39-1.14-4.66.91-6.94,6.14m19.11-63.6q0,15.7,11.38,11.38a13.76,13.76,0,0,0,11.38-11.38,11.37,11.37,0,0,0-12.17-12.17q-10.47-3.53-10.47,12.17m17.41,79.65q0,22.76,15.7,22.75,19.11,0,19.11-22.75t-19.11-22.76q-15.7,0-15.7,22.76m8.76,121.05a41,41,0,0,0,0,33.11c2.27,5.23,4.66,7.28,6.94,6.14,8.08-1.13,12.17-8.76,12.17-22.75s-4.09-21.5-12.17-22.75c-2.39-1.14-4.67.91-6.94,6.14m22.75-92.39a41.12,41.12,0,0,0,0,33.11c2.28,5.24,5.24,7.28,8.76,6.15q10.47-1.71,10.47-22.76,0-19.11-10.47-22.75c-3.52-1.14-6.37.91-8.76,6.14M7069.51,6475c0,10.47,3.76,14.22,11.38,11.38a13.87,13.87,0,0,0,11.38-11.38,12.74,12.74,0,0,0-10.47-12.17q-12.17-3.42-12.17,12.17m27-103.65a12.3,12.3,0,0,0-4.32,11.38c0,10.47,3.75,14.56,11.38,12.18a13.08,13.08,0,0,0,11.37-12.18,12.06,12.06,0,0,0-10.46-10.47,5.81,5.81,0,0,0-7.85-.91m0,144.61a34.14,34.14,0,0,0,0,33.11q4.26,7.84,7.85,6.14c6.94-1.13,10.46-8.76,10.46-22.75s-3.52-20.25-10.46-22.76c-2.39-1.13-4.89.91-7.85,6.15m18.31-63.6q0,15.7,12.18,11.38a14.35,14.35,0,0,0,12.17-11.38,13.43,13.43,0,0,0-12.17-12.18q-12.18-3.53-12.18,12.18m0,137.67c0,9.32,4.1,13.08,12.18,11.37a12.28,12.28,0,0,0,12.17-11.37,13.43,13.43,0,0,0-12.17-12.18q-12.18-3.41-12.18,12.18m24.35-69.75c0,9.33,3.76,13.09,11.38,11.38a11,11,0,1,0-.8-21.85q-10.46-3.53-10.46,10.47m26.16,41a40.13,40.13,0,0,0-3.52,16.61,46,46,0,0,0,3.52,17.41c2.28,5.8,4.67,8.19,6.94,6.94a23.54,23.54,0,0,0,12.18-24.35,37.78,37.78,0,0,0-2.62-14.79,13.29,13.29,0,0,0-9.56-7.85c-2.39-1.14-4.66.91-6.94,6m-4,166.79q0,14,11.38,11.38a11,11,0,1,0-.8-21.85q-10.45-3.41-10.46,10.47m37.43-45.51a99.58,99.58,0,0,0,20,34.82,53.17,53.17,0,0,1,.91-9.56,133,133,0,0,0,.91-14.79,122.1,122.1,0,0,0-4.32-34.13,103.76,103.76,0,0,0-20-34.14,52.61,52.61,0,0,1-.92,9.56,119.25,119.25,0,0,0-.91,13.08,129.89,129.89,0,0,0,4.33,34.82m58.48,294.33a41,41,0,0,0,0,33.11c2.27,5.24,4.66,7.28,6.94,6.15,8.08-1.14,12.17-8.76,12.17-22.76s-4.09-21.5-12.17-22.75c-2.39-1.14-4.67.91-6.94,6.14m19.11,75.77c0,9.33,3.76,12.52,11.38,9.56a13.89,13.89,0,0,0,11.38-11.38,12.75,12.75,0,0,0-10.47-12.17q-12.18-3.42-12.17,13.88m12.17-128.91a60.9,60.9,0,0,0,2.62,14.79c1.7,6.38,3.75,13.43,6.14,20.94s4.66,14.56,6.94,20.93a36.89,36.89,0,0,0,6.94,13.09,130.14,130.14,0,0,1,.91-16.61,145.18,145.18,0,0,0,.91-18.32,301,301,0,0,0-2.62-43.58,69,69,0,0,0-21.84-36.63v45.39Zm22.75,207.41h27.88a45.52,45.52,0,0,0-27.88-45.51Zm27.88-68.26q0,22.76,17.41,22.75,19.11,0,19.11-22.75,0-24.35-19.11-24.35-17.42,0-17.41,24.35m50.52-92.38a225.91,225.91,0,0,0-10.47,22.75v22.76a54.47,54.47,0,0,0,13.88-22.76,147.65,147.65,0,0,1,10.47-22.75v-22.76a98.8,98.8,0,0,0-14,22.76m41.87-115q0,22.76,17.41,22.75,19.11,0,19.11-22.75c0-15.13-6.37-22.76-19.11-22.76s-17.41,7.63-17.41,22.76m22.76-69.74q0,22.75,17.4,22.75,19.13,0,19.12-22.75t-19.12-22.76q-17.4,0-17.4,22.76m40-45.51a28.74,28.74,0,0,0,14-9.56,42,42,0,0,0,8.76-13.08,72.54,72.54,0,0,0,3.53-12.18,14,14,0,0,0-1.71-5.23,15.28,15.28,0,0,1-1.71-6.94Zm52.34-137.67q0,22.76,17.41,22.75,19.11,0,19.11-22.75,0-24.35-19.11-24.35-17.42,0-17.41,24.35m22.75-69.74q0,22.76,17.41,22.75,19.13,0,19.12-22.75t-19.12-22.76q-17.4,0-17.41,22.76m22.76-45.51q0,22.76,17.41,22.75,19.11,0,19.11-22.75,0-24.36-19.11-24.35-17.42,0-17.41,24.35m24.35-47q0,22.76,15.7,22.75,19.11,0,19.11-22.75t-19.11-22.76q-15.71,0-15.7,22.76m54.84-95a45.27,45.27,0,0,0-11.38,6.94,20.76,20.76,0,0,0-6.94,10.46,7.85,7.85,0,0,0,3.53,9.56,16.72,16.72,0,0,0,20.93-3.53,19.21,19.21,0,0,0,1.71-20.93c-1.14-3.53-3.76-4.32-7.85-2.62m13.08-135.05q0,22.76,17.41,22.76,19.11,0,19.11-22.76c0-15-6.37-22.75-19.11-22.75s-17.41,7.62-17.41,22.75m32.2,43.58a31.17,31.17,0,0,0-11.38,6.14,21.09,21.09,0,0,0-6.94,10.47,8,8,0,0,0,3.53,9.56,18.31,18.31,0,0,0,21.84-3.53,14.22,14.22,0,0,0,.91-19.12,5.56,5.56,0,0,0-6.84-3.9,5.36,5.36,0,0,0-1,.38m-9.55-88.86q0,22.76,17.4,22.75,19.13,0,19.12-22.75t-19.12-22.76q-17.4,0-17.4,22.76m24.34-47.1q0,24.45,15.71,24.34,19.11,0,19.22-24.34,0-22.76-19.22-22.76-15.7,0-15.71,22.76m27.88,127.2c0,10.46,3.75,14.56,11.38,12.17a13.07,13.07,0,0,0,11.37-12.17,15,15,0,0,0-10.46-12.18q-12.18-3.4-12.18,12.18m3.53,102.39a627.21,627.21,0,0,0-3.53,70.54,675.11,675.11,0,0,0,3.53,72.36q3.42,32.2,8.76,20a90.84,90.84,0,0,0,6.94-35.73q1.71-27,1.71-56.88t-1.71-55a122.55,122.55,0,0,0-6.94-37.43q-5.23-8.64-8.76,21.73m8.76,806h22.76V6671.05Zm5.23-1080.86q0,22.76,17.41,22.76,19.11,0,19.12-22.76t-19.12-22.75q-17.4,0-17.41,22.75m40.05,482.75,22.76-460h-22.76Zm5.24,622.12q0,22.76,17.41,22.75,19.11,0,19.11-22.75,0-24.36-19.11-24.47-17.41,0-17.41,24.47M7835,6649.21c-1.14,6.37-2.39,16.27-3.53,29.58s-1.7,29.35-1.7,47.9v116.73a451.62,451.62,0,0,0,3.52,64.51q3.54,22.76,6.94,14a169.12,169.12,0,0,0,8.77-55q1.69-39.24,1.7-82.71t-1.7-82.83a169.52,169.52,0,0,0-8.77-54.84q-3.53-6.93-5.23,2.62m29.58,480a14.68,14.68,0,0,0,8.76,12.18,72.59,72.59,0,0,1,13.88,10.46,47.3,47.3,0,0,0,10.47,3.53,20.48,20.48,0,0,0,6.14-1.7A20.26,20.26,0,0,1,7910,7152a367.87,367.87,0,0,1-28.79-89.77q-9.56-49.72-16.61-93.18v160.19Z" transform="translate(-1512.1 -5547.99)"/><path class="cls-1" d="M8353.57,7163.7a147.86,147.86,0,0,0,52.22-101q1.71-26.16,6.94-81.91t12.18-126.29q6.95-70.54,14.79-147.91t14.79-147.91q6.95-70.53,12.17-126.29t6.94-83.62v-12.17q0-13.89.91-30.49t.91-34.14v-24.34q0-73.17-13.08-108.09a94.78,94.78,0,0,0-32.77-48.7,73.5,73.5,0,0,0-46.19-11.37q-26.16,1.71-52.33,2.61a140.36,140.36,0,0,1-49.61-6.94,71.43,71.43,0,0,1-39.25-41q1.71-22.76,20.93-22.76h71.45q17.42,0,53.14.91t75,3.53l75,5.23a400.31,400.31,0,0,1,51.43,6.15,1069.74,1069.74,0,0,1,101,217q38.34,113.78,71.45,230.05T8833,6704.28a1111.37,1111.37,0,0,0,101,218.67q47-81.91,86.24-167.25t74.87-172.48q35.72-87.15,69.74-175.1t68.26-175.1q8.76-22.76,23.56-57.45t29.58-68.27q14.79-33.11,37.43-79.64H9624.2v22.75a219.61,219.61,0,0,0-129.81,37.44q-53.13,37.55-53.14,119.35v50.51q1.71,40.05,5.24,106.27t7.05,142.78q4.32,76.69,8.76,156.78t8.76,149.05q4.34,68.83,7.85,117.64a1303,1303,0,0,0,23.56,158.49,136.5,136.5,0,0,0,34.81,59.28,148,148,0,0,0,61.89,34.13,594,594,0,0,0,94.1,18.32v22.75H9198.69a30.7,30.7,0,0,1,17.4-23.55q17.42-11.38,39.26-24.46a398.71,398.71,0,0,0,42.66-29.58,69.62,69.62,0,0,0,26.17-37.44V6785.62q0-17.4-.91-53.13t-2.62-81q-1.69-45.51-4.32-95t-5.23-95.8q-2.62-46.18-5.24-81.91t-4.32-53.14q-12.18,26.18-34.82,79.65t-52.1,121.51l-62.13,144.26-61.89,143.7q-29.69,68.84-53.13,122.88T9003.34,7016q-10.47,26.16-20.94,55.75t-22.75,58.36a311,311,0,0,1-28.79,53.14,134.35,134.35,0,0,1-42.66,40,496.62,496.62,0,0,1-50.52-102.39,330,330,0,0,1-20.93-113.78,278.92,278.92,0,0,1,12.17-81.91,280.42,280.42,0,0,0,12.17-81.92v-10.7l-45.51,22.76c1.14-2.28,3.19-6.71,6.15-13.09a178.51,178.51,0,0,0,7.85-20.93q3.41-11.39,6.14-20.93a61.06,61.06,0,0,0,2.62-14.8v-22.75l-45.51,22.75v-19.11a274.15,274.15,0,0,0,11.38,78.39,276,276,0,0,1,11.37,78.39v24.35a670.05,670.05,0,0,1-63.6-142.9,328.21,328.21,0,0,1-6.14-156.78l-45.51,22.75a766.48,766.48,0,0,1-35.73-79.64,651.88,651.88,0,0,1-27-87.15,521,521,0,0,1-13.08-89.77,347.66,347.66,0,0,1,6-88.86q-1.71,5.23-6,15.71a150.11,150.11,0,0,1-9.56,19.11,72.64,72.64,0,0,1-10.47,13.88c-3.53,3.53-5.8,4.1-6.94,1.71a16.83,16.83,0,0,1-12.17-3.53q-19.23,165.54-34.13,323.23t-14.8,323.24q0,34.81.92,71.45a159.12,159.12,0,0,0,14,64.51,86.12,86.12,0,0,0,41.87,41.86q28.78,14,84.53,3.53v22.76h-414V7200a177.86,177.86,0,0,0,109.79-36.63m57.46-55.75q0,22.76,17.41,22.75,19.11,0,19.11-22.75c0-15.14-6.37-22.76-19.11-22.76s-17.41,7.62-17.41,22.76M8456.54,6095q0,22.75,17.41,22.75,19.11,0,19.22-22.75c0-15.14-6.37-22.76-19.22-22.76s-17.41,7.62-17.41,22.76m12.17,857.28a174.3,174.3,0,0,0-3.53,40.05V7108a232.39,232.39,0,0,0,2.62,40.05q2.63,14,6,5.23a124.93,124.93,0,0,0,7.85-39.25q2.63-28.78,2.62-61.9,0-34.82-2.62-64.51a127.6,127.6,0,0,0-7.85-40q-1.71-8.76-5.23,5.24m10.46-834.65q0,24.47,17.41,24.35,19.13,0,19.23-24.35,0-22.76-19.23-22.75-17.4,0-17.41,22.75m0,1059.47q0,22.76,17.41,22.75,19.13,0,19.23-22.75,0-24.36-19.23-24.47-17.4,0-17.41,24.47m7.4-426.88c0,9.33,3.76,13.08,11.38,11.37a11,11,0,1,0-.8-21.84q-10.47-3.42-10.47,10.47m26.17-602.1a41.12,41.12,0,0,0,0,33.11c2.28,5.23,5.24,7.28,8.76,6.14a12.91,12.91,0,0,0,7.85-7.85,37.21,37.21,0,0,0,2.62-14.79q0-19.11-10.47-22.75c-3.52-1.14-6.37.91-8.76,6.14m19.12-87.94c-9.33,0-13.09,4.09-11.38,12.17a12.28,12.28,0,0,0,11.38,12.17,13.42,13.42,0,0,0,12.17-12.17q3.42-12.18-12.17-12.17m3.52,225.61a41.12,41.12,0,0,0,0,33.11c2.28,5.23,5.24,7.28,8.76,6.14,6.94-1.14,10.47-8.65,10.47-22.75s-3.53-20.37-10.47-22.76c-3.52-1.14-6.37.91-8.76,6.15m19.12-63.6q0,15.69,12.17,11.37a14.35,14.35,0,0,0,12.18-11.37,13.44,13.44,0,0,0-12.18-12.18q-12.17-3.41-12.17,12.18m21.73-79.65q9.56,15.7,13.08,22.76v-69.74a29,29,0,0,0-13.08,8.76,23.53,23.53,0,0,0-9.56,14,52.76,52.76,0,0,0,9.56,24.35m6,121.05a41.2,41.2,0,0,0,0,33.11c2.27,5.24,4.66,7.28,6.94,6.15a13.21,13.21,0,0,0,9.56-7.85,37.44,37.44,0,0,0,2.61-14.79q0-20.94-12.17-22.76c-2.39-1.14-4.67.91-6.94,6.14m19.23-63.6q0,15.7,11.37,11.38a13.76,13.76,0,0,0,11.38-11.38,11.37,11.37,0,0,0-12.17-12.17q-10.47-3.53-10.47,12.17m17.41,79.65q0,22.76,15.7,22.75,19.11,0,19.11-22.75t-19.11-22.76q-15.7,0-15.7,22.76m8.76,121.05a41,41,0,0,0,0,33.11q3.41,7.85,6.94,6.14c8.08-1.13,12.17-8.76,12.17-22.75s-4.09-21.5-12.17-22.75c-2.39-1.14-4.67.91-6.94,6.14m22.75-92.39a41,41,0,0,0,0,33.11c2.28,5.24,5.24,7.28,8.65,6.15q10.47-1.71,10.47-22.76,0-19.11-10.47-22.75c-3.53-1.14-6.37.91-8.65,6.14m-4.78,166.79q0,15.71,11.38,11.38a13.87,13.87,0,0,0,11.38-11.38,12.74,12.74,0,0,0-10.47-12.17q-12.17-3.42-12.17,12.17m27-103.65a12.3,12.3,0,0,0-4.32,11.38c0,10.47,3.75,14.56,11.38,12.17a13.06,13.06,0,0,0,11.37-12.17,12.18,12.18,0,0,0-10.46-10.47,5.81,5.81,0,0,0-7.85-.91m0,144.61a34.14,34.14,0,0,0,0,33.11q4.26,7.84,7.85,6.14c6.94-1.13,10.46-8.76,10.46-22.75s-3.52-20.25-10.46-22.76c-2.39-1.13-5,.91-7.85,6.15m18.31-63.6q0,15.69,12.18,11.37a14.33,14.33,0,0,0,12.17-11.37,13.43,13.43,0,0,0-12.17-12.18q-12.18-3.53-12.18,12.18m0,137.66c0,9.33,4.1,13.09,12.18,11.38a12.28,12.28,0,0,0,12.17-11.38,13.42,13.42,0,0,0-12.17-12.17q-12.18-3.41-12.18,12.17m24.35-69.74c0,9.33,3.76,13.08,11.38,11.38a11,11,0,1,0-.8-21.85q-10.46-3.53-10.46,10.47m26.16,41a39.94,39.94,0,0,0-3.52,16.61,46,46,0,0,0,3.52,17.41c2.28,5.8,4.67,8.19,6.94,6.94A23.54,23.54,0,0,0,8761,6578.1a37.57,37.57,0,0,0-2.62-14.79,13.29,13.29,0,0,0-9.56-7.85c-2.27-1.14-4.66.91-6.94,6m-3.3,166.45q0,14,11.38,11.38a11,11,0,1,0-.8-21.85q-10.45-3.41-10.46,10.47m37.43-45.51a99.33,99.33,0,0,0,20,34.82,53.17,53.17,0,0,1,.91-9.56,135.43,135.43,0,0,0,.91-14.79,121.36,121.36,0,0,0-4.32-34.13,103.22,103.22,0,0,0-20-34.14,53.17,53.17,0,0,1-.91,9.56,114.5,114.5,0,0,0-.91,13.08,129.48,129.48,0,0,0,4.32,34.82m58.37,293.65a41.12,41.12,0,0,0,0,33.11c2.27,5.23,4.66,7.28,6.94,6.14q12.16-1.69,12.17-22.75t-12.17-22.76c-2.39-1.13-4.67.91-6.94,6.15m19.11,75.77c0,9.33,3.75,12.52,11.38,9.56a13.86,13.86,0,0,0,11.37-11.38,12.73,12.73,0,0,0-10.46-12.17q-12.18-3.42-12.18,13.88m12.18-128.91a60.88,60.88,0,0,0,2.61,14.79c1.71,6.37,3.76,13.43,6.15,20.94s4.66,14.56,6.94,20.93a36.6,36.6,0,0,0,6.94,13.08,130.3,130.3,0,0,1,.91-16.61,145,145,0,0,0,.91-18.31,302.37,302.37,0,0,0-2.62-43.58A68.88,68.88,0,0,0,8866,6877v45.51Zm22.75,207.41h27.88a45.51,45.51,0,0,0-27.88-45.51Zm27.88-68.26q0,22.76,17.4,22.75,19.13,0,19.12-22.75,0-24.34-19.12-24.35t-17.4,24.35m50.51-92.39a223.81,223.81,0,0,0-10.46,22.76v22.75a54.7,54.7,0,0,0,13.88-22.75,150.59,150.59,0,0,1,10.46-22.76v-22.75a100,100,0,0,0-13.88,22.75m41.87-115q0,22.76,17.41,22.75,19.11,0,19.11-22.75c0-15.13-6.37-22.76-19.11-22.76s-17.41,7.63-17.41,22.76m22.76-69.75q0,22.76,17.4,22.76,19.13,0,19.12-22.76t-19.12-22.75q-17.4,0-17.4,22.75m40-45.51a28.69,28.69,0,0,0,13.88-9.55,42.54,42.54,0,0,0,8.76-13.09,71.47,71.47,0,0,0,3.52-12.17,13.82,13.82,0,0,0-1.7-5.23,15.28,15.28,0,0,1-1.71-6.94Zm51.88-136.07q0,22.76,17.4,22.75,19.13,0,19.12-22.75,0-24.34-19.12-24.35-17.4,0-17.4,24.35m22.75-69.74q0,22.76,17.41,22.75,19.11,0,19.11-22.75t-19.11-22.76q-17.42,0-17.41,22.76m22.76-45.51q0,22.76,17.4,22.75,19.13,0,19.12-22.75,0-24.36-19.12-24.35-17.4,0-17.4,24.35m24.34-47q0,22.76,15.7,22.75,19.13,0,19.12-22.75t-19.12-22.76q-15.69,0-15.7,22.76m55-95a45.27,45.27,0,0,0-11.38,6.94,20.76,20.76,0,0,0-6.94,10.46,7.85,7.85,0,0,0,3.41,9.56,16.74,16.74,0,0,0,20.94-3.53,19.23,19.23,0,0,0,1.7-20.93q-1.69-5.23-7.85-2.62m13.09-135.05q0,22.76,17.41,22.76,19.11,0,19.11-22.76c0-15-6.37-22.75-19.11-22.75s-17.41,7.62-17.41,22.75m32.2,43.58a30.8,30.8,0,0,0-11.38,6.14,21,21,0,0,0-6.94,10.47,8,8,0,0,0,3.53,9.56,18.33,18.33,0,0,0,21.73-3.53,14.23,14.23,0,0,0,.91-19.12,5.57,5.57,0,0,0-6.85-3.9,5,5,0,0,0-1,.38M9284,6165.1q0,22.76,17.41,22.75,19.11,0,19.11-22.75t-19.11-22.76q-17.42,0-17.41,22.76m24.35-47.1q0,24.45,15.7,24.34,19.11,0,19.11-24.34,0-22.76-19.11-22.76-15.7,0-15.7,22.76m27.87,127.2c0,10.46,3.76,14.56,11.38,12.17A13.09,13.09,0,0,0,9359,6245.2a15,15,0,0,0-10.47-12.18q-12.18-3.41-12.17,12.18m3.41,102.39a627.11,627.11,0,0,0-3.41,70.54,675,675,0,0,0,3.41,72.36q3.53,32.2,8.76,20a91,91,0,0,0,6.94-35.73q1.71-27,1.71-56.88t-1.71-55a123.15,123.15,0,0,0-6.94-37.43q-5.23-8.64-8.76,21.73m8.76,806h22.75V6671.05Zm5.23-1080.86q0,22.76,17.41,22.76,19.11,0,19.23-22.76t-19.23-22.75q-17.4,0-17.41,22.75m40,482.75,22.76-460h-22.76Zm5.24,622.12q0,22.74,17.4,22.75,19.13,0,19.12-22.75,0-24.36-19.12-24.47-17.4,0-17.4,24.47m12.17-527.12q-1.71,9.55-3.53,29.58t-1.71,48.24v116.73a450.17,450.17,0,0,0,3.53,64.51q3.42,22.76,6.94,14a168.83,168.83,0,0,0,8.76-55q1.71-39.25,1.71-82.72t-1.71-82.83a168.71,168.71,0,0,0-8.76-54.84q-3.53-6.93-5.23,2.62m29.58,480a14.68,14.68,0,0,0,8.76,12.17,73.27,73.27,0,0,1,13.88,10.47,47.1,47.1,0,0,0,10.47,3.52,20.19,20.19,0,0,0,6.14-1.7,20.11,20.11,0,0,1,6-1.71,368.41,368.41,0,0,1-28.78-89.77q-9.57-49.71-16.5-93.18v160.2Z" transform="translate(-1512.1 -5547.99)"/><path class="cls-1" d="M10198.88,7130.59a53.92,53.92,0,0,1-18.32-13.09q-14.79-13.08-33.11-31.4t-36.63-37.43a216.52,216.52,0,0,1-27-33.11,198.06,198.06,0,0,1-28.78-46.19,380.59,380.59,0,0,1-19.12-53.13q-7.85-27.89-13.08-55.75t-8.76-52.34q-1.71-24.34-4.33-74.07t-5.23-113.77q-2.61-63.6-4.32-134.14t-4.33-133.68q-2.61-63.6-3.52-113.78t-.91-74.07a143.74,143.74,0,0,0-59.28-84.53,190.11,190.11,0,0,0-101-30.49l22.75-22.76h460l22.76,22.76a301.47,301.47,0,0,0-63.94,7.05,188.82,188.82,0,0,0-59.28,23.55,141.62,141.62,0,0,0-44.49,42.67,113.8,113.8,0,0,0-17.4,64.51v597.66a289.13,289.13,0,0,0,32.2,134.14,380.27,380.27,0,0,0,84.53,109.79,403,403,0,0,0,118.78,74.41,351.94,351.94,0,0,0,134.14,27,355.85,355.85,0,0,0,141.19-26.17,293.31,293.31,0,0,0,111.5-88.86q12.18-66.21,18.32-135.05t6.14-142v-343q0-50.51-.91-104.55t-.91-102.4v-69.74a81.42,81.42,0,0,0-27.87-34.82,139.92,139.92,0,0,0-42.67-20.93,271.43,271.43,0,0,0-47.9-9.56,403.91,403.91,0,0,0-41.87-2.62v-22.75h505.39v22.75a231,231,0,0,0-108,45.51,217.06,217.06,0,0,0-61,79.64,329.2,329.2,0,0,0-26.16,104.56,992.07,992.07,0,0,0-3.53,118.44q1.71,61,6.94,122t5.46,114.91q0,55.76-.91,121.06t0,135.05q.91,69.74,6.94,136.53a855.57,855.57,0,0,0,20,125.15,104.86,104.86,0,0,0,32.19,29.58,218.43,218.43,0,0,0,42.67,20,444.19,444.19,0,0,0,45.51,13.09,319.67,319.67,0,0,0,40,6.94H10784.7V7108q-47.1,33.11-83.62,55.75a410.28,410.28,0,0,1-71.45,35.72,374.18,374.18,0,0,1-74.07,19.12,598.69,598.69,0,0,1-91,6.14q-38.34,0-75.77-.91a278.11,278.11,0,0,1-66.22-8.76,91,91,0,0,1-46.19-27.88,83.48,83.48,0,0,1-17.41-56.88h-59.28ZM10035,6073.74a34.12,34.12,0,0,0-20.93,21.84l69.74-22.75a53.24,53.24,0,0,1-9.56-.91,121.77,121.77,0,0,0-13.08-.91,125.07,125.07,0,0,0-26.17,2.62m-6,51.31a149.74,149.74,0,0,0,0,55.75c1.71,8.19,4.33,10.46,7.85,6.94a43.7,43.7,0,0,0,12.18-34.82,47.21,47.21,0,0,0-12.18-34.81c-3.52-3.53-6.14-1.14-7.85,6.94m35.73,822.47q0,22.76,19.11,22.76t19.12-22.76q0-24.34-19.12-24.35t-19.11,24.35m10.46-521q-1.82,17.4-1.7,52.33v153.37q0,34.94,1.7,54t8.77,6.94a231,231,0,0,0,6.94-55q1.7-39.26,1.7-82.71t-1.93-82.71a230.91,230.91,0,0,0-6.94-54.84q-7-8.65-8.76,8.76m17.4-288.42a362.37,362.37,0,0,0-13.08,79.64q-2.61,44.49-.91,88.06t1.71,66.22h26.16l6.15-49.61q4.32-35.72,7.85-76.68t6.14-77.59q2.63-36.53,2.62-50.52V6095q-26.18,6.94-36.64,42.67m.91,701.42a202,202,0,0,0,35.73,83.62v-63.94a325.23,325.23,0,0,0-7.85-71.45,62,62,0,0,0-37.43-47.1v10.47a463.82,463.82,0,0,0,9.56,88.85m16.49,176q0,22.75,19.12,22.76t19.22-22.76q0-22.76-19.22-22.75t-19.12,22.75m22.76,22.76q0,24.45,19.11,24.34t19.23-24.34q0-22.76-19.23-22.76t-19.11,22.76m8.76-79.64c0,9.32,3.75,13.08,11.38,11.37a11,11,0,1,0-.8-21.84q-10.47-1.71-10.47,10.47m15.7,34.81q0,22.76,19.12,22.75t19.11-22.75q0-22.76-19.11-22.75t-19.12,22.75m0,69.74q0,22.76,19.12,22.76t19.11-22.76q0-24.34-19.11-24.34t-19.12,24.34m22.76-47q0,22.76,19.11,22.76t19.12-22.76q0-22.74-19.12-22.75t-19.11,22.75m0,69.75q0,22.76,19.11,22.75t19.12-22.75q0-22.76-19.12-22.76t-19.11,22.76m22.75-47.1c0,16.27,6.37,24.34,19.12,24.34s19.11-8.07,19.11-24.34-6.37-22.76-19.11-22.76-19.12,7.62-19.12,22.76m0,69.74c0,15.13,6.37,22.75,19.12,22.75s19.11-7.5,19.11-22.75-6.37-22.76-19.11-22.76-19.12,7.63-19.12,22.76m22.76-45.51q0,22.76,19.11,22.75t19.12-22.75q0-24.34-19.12-24.35t-19.11,24.35m22.75,22.75q0,22.76,19.12,22.76t19.11-22.76q0-22.76-19.11-22.75t-19.12,22.75m54.05,10.47c-9.33,0-13.09,4.1-11.38,12.18a12.28,12.28,0,0,0,11.38,12.17,13.43,13.43,0,0,0,12.17-12.17c2.27-8.08-1.71-12.18-12.17-12.18m-10.47,57.46a13.82,13.82,0,0,1,5.23,1.7,13.32,13.32,0,0,0,5.24,1.71,70.86,70.86,0,0,0,12.17-3.53,41.06,41.06,0,0,0,13.08-8.64,29,29,0,0,0,9.56-14Zm57.45,12.17c-9.33,0-13.08,3.76-11.37,11.38a11.38,11.38,0,0,0,11.37,11.38,12.18,12.18,0,0,0,10.47-10.47,9.32,9.32,0,0,0-10.47-12.17m68.27-22.76c-9.33,0-13.09,3.75-11.38,11.38a11.14,11.14,0,0,0,18.32,8.76,16.74,16.74,0,0,0,5.23-9.56c1.14-6.94-3-10.47-12.17-10.47m22.75,45.51c-9.33,0-13.08,3.76-11.37,11.38a11.38,11.38,0,0,0,11.37,11.38,12.75,12.75,0,0,0,12.18-10.47,10,10,0,0,0-7.23-12.17,9.88,9.88,0,0,0-4.95,0m383.31-1069.48q0,24.46,19.11,24.35t19.12-24.35q0-22.76-19.12-22.76t-19.11,22.76m14,463.52q-1.71,19.22-2.61,61t-.91,101v122q0,61,.91,120.26t1.7,102.39q.92,42.78,2.62,61.9c1.14,12.85,2.28,13.88,3.53,3.52q1.71-19.11,6.14-65.3t4.32-102.4V6865.72q0-94.1-3.52-174.3t-6.94-113.78q-3.54-15.69-5.24,3.53m52.23-486.16,22.75-22.75H10867ZM10867,7199.76h45.51L10867,7177Zm20.14-257.35q0,40.16.91,81t.91,75.78v31.4l45.51,22.75v-22.75l-22.76-322.32v-45.51l22.76-620.42V6118h-22.76q-19.21,196.93-21.84,377.27t-2.62,375.46v71.45Z" transform="translate(-1512.1 -5547.99)"/><path class="cls-1" d="M11294.07,7209.89a60.07,60.07,0,0,0-21.85,14.79V6902.36q15.71,120.26,82.83,192.5t192.51,82.72q95.79,10.45,144.6-23.55a186.27,186.27,0,0,0,69.75-91,384.83,384.83,0,0,0,21.73-127.2q.92-69.63.91-132.44a5.6,5.6,0,0,0-3.53,4.33c-1.14,2.95-2.27,3.75-3.53,2.61a261.59,261.59,0,0,1-23.55-21.73,269,269,0,0,1-21.73-23.55l45.51-47.1a37.41,37.41,0,0,1-13.08,6.94l-20.94,7.85q-11.37,4.32-20.93,6.94a60.9,60.9,0,0,1-14.79,2.62h-10.47a341.34,341.34,0,0,1-152.46-37.44A531.81,531.81,0,0,1,11309,6472.18a323.12,323.12,0,0,1-38.34-147.91q0-115,42.66-178.63a244.29,244.29,0,0,1,113.78-92.38,455,455,0,0,1,162-30.49q91-1.71,188.19,5.23,8.64-10.47,28.78-31.4a57,57,0,0,1,41-20.94v339.73q-7.05,0-16.61-16.49t-23.55-41a589.68,589.68,0,0,0-34.82-53.13,266.41,266.41,0,0,0-52.22-53.14,279.78,279.78,0,0,0-177.71-57.45q-85.46,0-133.35,39.25t-47.55,128a180.25,180.25,0,0,0,20,91,324.35,324.35,0,0,0,43.58,60.07q23.55,25.26,43.57,47.9a76.62,76.62,0,0,1,20,52.22h-55.75a325.83,325.83,0,0,1,18.31,27,30.92,30.92,0,0,1,4.33,14.79,54.37,54.37,0,0,1-1.71,8.77,93,93,0,0,0-1.71,20.93,245.17,245.17,0,0,1,71.45,9.56,244.24,244.24,0,0,0,71.45,9.55h22.76l-115-68.26,10.47-.91c5.8-.57,9.9-.91,12.17-.91a297.24,297.24,0,0,1,138.47,34.81,438.14,438.14,0,0,1,118.55,89.77,445.86,445.86,0,0,1,81.92,122.88,326.38,326.38,0,0,1,30.49,134.14,354.4,354.4,0,0,1-25.26,135.05,298,298,0,0,1-71.45,105.47,330,330,0,0,1-109.79,68.26,389.25,389.25,0,0,1-140.28,24.35q-3.54,0-20.94-2.62l-38.34-6.14-42.67-6.94q-21.84-3.52-35.72-6.94a84.06,84.06,0,0,1-18.32-3.53l-28.78-7.85-28.79-7.85a91.64,91.64,0,0,0-16.61-3.53,66.33,66.33,0,0,0-23.55,7.85m6.14-54.84q0,22.76,17.41,22.76,19.11,0,19.11-22.76t-19.11-22.75q-17.42,0-17.41,22.75m6.94-815.53c0,10.47,3.76,14.22,11.38,11.38a13.9,13.9,0,0,0,11.38-11.38,13.43,13.43,0,0,0-12.18-12.17q-10.47-3.42-10.47,12.17m15.71,57.57q0,22.76,17.4,22.76,19.13,0,19.12-22.76,0-24.34-19.12-24.35-17.4,0-17.4,24.35m33.1,41.87a27.34,27.34,0,0,0-10.46,6.94,36.33,36.33,0,0,0-7.85,11.38c-1.71,4.09-.91,6.71,2.61,7.85a16.61,16.61,0,0,0,21.73-1.71,18.2,18.2,0,0,0,2.62-20.93,7.05,7.05,0,0,0-8.76-3.53m9,72.36,45.51-24.35-22.76-22.75Zm27.87,45.51q0,22.76,17.41,22.75,19.13,0,19.23-22.75t-19.23-22.76q-17.4,0-17.41,22.76m69.75,45.51c0,16.27,5.23,24.46,15.7,24.46q19.11,0,19.11-24.46c0-15-6.37-22.76-19.11-22.76-10.47,0-15.7,7.63-15.7,22.76m45.51,24.46q0,22.76,17.41,22.76,19.11,0,19.11-22.76,0-24.34-19.11-24.46t-17.41,24.46m45.51,22.76q0,22.76,17.41,22.75,19.11,0,19.11-22.75t-19.11-22.76q-17.42,0-17.41,22.76m93.18-8.77a78.3,78.3,0,0,1-28.79,31.41h22.76q8.7-1.71,34.81-9.56a129,129,0,0,0,33.11-13.08l-45.51-47.11a364.54,364.54,0,0,1-16.49,38.34m-.91,54.05q0,22.76,17.4,22.75,19.13,0,19.23-22.75t-19.23-22.76q-17.4,0-17.4,22.76m47.1,22.75q0,24.47,15.7,24.35,19.11,0,19.12-24.35c0-15-6.38-22.75-19.12-22.75-10.47,0-15.7,7.62-15.7,22.75m22.75-45.51q0,22.76,17.41,22.76,19.11,0,19.12-22.76t-19.12-22.75q-17.4,0-17.41,22.75m22.76,22.76q0,22.76,17.41,22.75,19.11,0,19.11-22.75t-19.11-22.76q-17.42,0-17.41,22.76m22.75-620.3q0,22.76,17.41,22.76,19.11,0,19.12-22.76c0-15.13-6.38-22.75-19.12-22.75s-17.41,7.62-17.41,22.75m0,45.51q0,22.76,17.41,22.75,19.11,0,19.12-22.75t-19.12-22.75q-17.4,0-17.41,22.75m32.2,618.59a31.17,31.17,0,0,0-11.38,6.14,21,21,0,0,0-6.94,10.47,7.86,7.86,0,0,0,3.53,9.56,18.21,18.21,0,0,0,21.73-3.53,14.21,14.21,0,0,0,.91-19.11,5.57,5.57,0,0,0-6.84-3.91,5.12,5.12,0,0,0-1,.38m14.79,26.17q0,22.76,17.41,22.75,19.13,0,19.23-22.75t-19.23-22.76q-17.4,0-17.41,22.76m0,68.26q0,24.46,17.41,24.35,19.13,0,19.23-24.35c0-15-6.37-22.75-19.23-22.75s-17.41,7.62-17.41,22.75m22.76-45.51q0,22.76,17.41,22.76,19.11,0,19.11-22.76t-19.11-22.75c-11.38,0-17.41,7.62-17.41,22.75m8.76,103.65a269.67,269.67,0,0,0-3.53,46.19,261.81,261.81,0,0,0,3.53,43.58q3.42,20.94,8.76,14a59.38,59.38,0,0,0,6.94-23.55,294.73,294.73,0,0,0,1.71-34.13,321.09,321.09,0,0,0-1.71-34.81,47.37,47.37,0,0,0-6.94-22.76q-5.23-8.76-8.76,11.38" transform="translate(-1512.1 -5547.99)"/><path class="cls-2" d="M9764.59,5798.29l-3.08,6.6a10.5,10.5,0,0,0-1.25,3.18c-1.48,16.62-13.42,26.51-24.12,37a134.36,134.36,0,0,1-65.3,31.29,116.53,116.53,0,0,1-21.62,0,303.75,303.75,0,0,1-37.66,1.71,9.26,9.26,0,0,0,2.27,1.13,249.31,249.31,0,0,1-64.39-20.7,176,176,0,0,1-49.84-107.18,31.74,31.74,0,0,0-1.47,10.47,5.92,5.92,0,0,1-1.6-5.35,214.5,214.5,0,0,1,2-38.57,82,82,0,0,1,19.23-39.48,172.81,172.81,0,0,0,13.2-16.72,54.79,54.79,0,0,1,26.51-17.75,32.23,32.23,0,0,1,20.82-2.85,86.25,86.25,0,0,0,15.58,0,29.35,29.35,0,0,0-20.82-6.14,86.36,86.36,0,0,0-21.61,4,32.7,32.7,0,0,1,9.44-9.56,91,91,0,0,1,22.75-8.41,49,49,0,0,1,39.6,8,5.24,5.24,0,0,0,4.89,2.05c2.16-1,0-3.42,0-5.12a58.16,58.16,0,0,0-9.79-27.76,26.47,26.47,0,0,1-4.43-10.81,13.64,13.64,0,0,1,10.35-14.56c11.38-2.05,11.38-1.71,17,9.21a101.64,101.64,0,0,1,9.33,42.44c0,4.78,1.25,5.57,5.46,3a60.2,60.2,0,0,1,27.65-6.15,67,67,0,0,0,47.22-25l1.48-1.7a3.17,3.17,0,0,1,3.18-1.82c1.94.91.8,2.73,0,4-2.84,8.3-5.69,16.61-9,24.8a21.27,21.27,0,0,1-12.28,11.38,79.33,79.33,0,0,0-16.73,7.39l15.82,7.06a62.35,62.35,0,0,0,7.51,2.73,4.39,4.39,0,0,1,3.52,1.14h0a29.76,29.76,0,0,1,13.09,10.24c2.27,2.73,19.91,31.06,20.25,31.06H9762a287.46,287.46,0,0,1,7.28,36.06c3.41,24.8,3.64,52.11-5.12,70.77" transform="translate(-1512.1 -5547.99)"/><path class="cls-1" d="M9200.26,5826.05a37.73,37.73,0,0,0-13.53-28.67,109.91,109.91,0,0,0-48.81-20,163.75,163.75,0,0,1-62-24,49.58,49.58,0,0,1-20-42.21,56.88,56.88,0,0,1,22.75-45.51,91.06,91.06,0,0,1,59.85-18.55,94,94,0,0,1,62.8,19.57,58.59,58.59,0,0,1,22.07,49v1.25h-24a43.25,43.25,0,0,0-16.39-33.56,77.57,77.57,0,0,0-86.58-2.16,36.63,36.63,0,0,0-14.22,28.55,34.13,34.13,0,0,0,12.17,26.74,119.14,119.14,0,0,0,48.81,18.55,159.32,159.32,0,0,1,62.58,25.48,52.82,52.82,0,0,1,20.82,43.92,56.89,56.89,0,0,1-23.67,47.44,118.89,118.89,0,0,1-129.59-2.16,57.69,57.69,0,0,1-22.75-48.47V5820h23.78a42.69,42.69,0,0,0,20.7,36.64,86.48,86.48,0,0,0,45.51,11.37,71.82,71.82,0,0,0,44.38-12.28,36.46,36.46,0,0,0,16.27-29.81" transform="translate(-1512.1 -5547.99)"/><rect class="cls-1" x="7865.54" width="25.71" height="337.57"/><path class="cls-1" d="M9721.81,5649.59l3.52,1.13a4.41,4.41,0,0,0-3.52-1.13m48.46,77.93a282.19,282.19,0,0,0-7.28-36.06h-4.21s-18-28.45-20.25-31.06a29.93,29.93,0,0,0-13.08-10.24,14.18,14.18,0,0,1,2.73,4.77l-8.08-5.68h1.71a62.35,62.35,0,0,1-7.51-2.73l-15.82-7.06a79.33,79.33,0,0,1,16.73-7.39,21.18,21.18,0,0,0,12.28-11.38c3.19-8.19,6-16.5,9-24.8,0-1.26,1.59-3.08,0-4a3.2,3.2,0,0,0-3.18,1.82l-1.48,1.71a67,67,0,0,1-47.22,25,60.33,60.33,0,0,0-27.65,6.15c-4.21,2.61-5.23,1.82-5.46-3a102.42,102.42,0,0,0-9.33-42.44c-5.34-11.38-5.57-11.38-17-9.1a13.52,13.52,0,0,0-10.35,14.56,26.34,26.34,0,0,0,4.43,10.81,58.16,58.16,0,0,1,9.79,27.76c0,1.71,1.82,4,0,5.12a5.22,5.22,0,0,1-4.89-2,49,49,0,0,0-39.6-8,89.37,89.37,0,0,0-22.75,8.42,32.82,32.82,0,0,0-9.45,9.55,86.52,86.52,0,0,1,21.62-4,29.32,29.32,0,0,1,20.82,6.15,88.12,88.12,0,0,1-15.58,0,31.91,31.91,0,0,0-20.82,2.84,54.63,54.63,0,0,0-26.51,17.75,174.34,174.34,0,0,1-13.2,16.84,81.75,81.75,0,0,0-19.23,39.48,214.45,214.45,0,0,0-2,38.57,5.9,5.9,0,0,0,1.6,5.34,31.72,31.72,0,0,1,1.47-10.46A175.93,175.93,0,0,0,9550.35,5858a249,249,0,0,0,64.39,20.71,8.79,8.79,0,0,1-2.27-1.14,305.7,305.7,0,0,0,37.66-1.7,114.71,114.71,0,0,0,21.61,0,134.35,134.35,0,0,0,65.31-31.29c10.7-10.47,22.76-20.37,24.12-37a10.55,10.55,0,0,1,1.25-3.19l3.07-6.59c8.77-18.55,8.54-45.51,5.12-70.77M9623.5,5581.44a4.22,4.22,0,0,1,5.27-2.78,4.62,4.62,0,0,1,.88.39,2.37,2.37,0,0,1,.91,1.7,9.56,9.56,0,0,1-7.06.69m5.35,14.9c-1-1-4-1.59-2.39-3.53a15.27,15.27,0,0,1,8.65-5.8c2.16,0,2,2.39,2.5,3.76a137.71,137.71,0,0,1,4.67,27,36.08,36.08,0,0,0,2.5,9,39,39,0,0,1-.68,18.43,20.68,20.68,0,0,1-3.76-14.11,58.26,58.26,0,0,0-5.57-26.62,38.41,38.41,0,0,0-6-8.08m-45.51,34.13-7.06-.91a48.61,48.61,0,0,1,51.43,9.67,6.07,6.07,0,0,1,2.39,4.21,106.58,106.58,0,0,1,.79,24.47c0,1.25,0,2.27.8,2.84a4.8,4.8,0,0,0,5.24-1c1.7-1.71,2.73-4.9,6.14-2.28.68,0,1.36-.91,1.93-1.71a116.59,116.59,0,0,1,11.38-15.58c1-1.14,3.3-2.62,0-4.55s2.62-3.42,1.25-6.15h-1.25c-1.71,0-3.07,3.42-4.66,1a4.55,4.55,0,0,1,2.16-5.81,26,26,0,0,1,15.36-6.25,326.73,326.73,0,0,0,40.5-5.35,26.19,26.19,0,0,1,9-2.28,11.35,11.35,0,0,1-8,6,98.56,98.56,0,0,0-40.73,24.92,2.3,2.3,0,1,0,1.6,4.32c15.35,1.37,24,13,34.13,21.62v1.37c-4.1-1.26-8.31-2.28-12.18-3.87a150.25,150.25,0,0,0-17.74-5.35,7.18,7.18,0,0,1-7.29-4.21,1.59,1.59,0,0,0-2.06-.9l-.21.1a3.54,3.54,0,0,0-1.48,3.42,58.22,58.22,0,0,0,5.12,24l4.09,9.9a42.32,42.32,0,0,1-21.5-9,5.91,5.91,0,0,1-2.35-8,6,6,0,0,1,1.33-1.64c1.93-1.82,0-3-1.48-3.75a4.89,4.89,0,0,1-2.64-6.4,5,5,0,0,1,1-1.57,74.74,74.74,0,0,1,9.79-13.65c1.48-1.59,4.78-4,2.5-5.8s-4.21,1.82-5.46,3.52a42.53,42.53,0,0,0-11.38,21.17,4.09,4.09,0,0,1-3.18,3.64A65.33,65.33,0,0,0,9607,5703.4a3.36,3.36,0,0,1-1.93,1,67,67,0,0,1,16.16-21.73,5.23,5.23,0,0,0,3.29-5.35,6,6,0,0,0-5.57-3.3,63.57,63.57,0,0,0-35.61,5.23l-3.07,1.37h-.91a40.47,40.47,0,0,1,21.84-10c4.21-.8,8.42-2.05,12.52-3.08a5.61,5.61,0,0,1,2.16,0c5.12.8,5.23.69,3.87-4.78a48.35,48.35,0,0,0-36.41-31.51m115.71,29.92a5.24,5.24,0,0,1,3.64-5.12c2.27,0,2.27,1.82,2.39,3.76s0,4.89-2.73,5.23a3.41,3.41,0,0,1-3.33-3.5,2.4,2.4,0,0,1,0-.37m-101.15,22a8,8,0,0,1,11.25.64,1.83,1.83,0,0,0,.13.16,2.61,2.61,0,0,1-.59,3.65,2.49,2.49,0,0,1-1,.44c-4.67,1.82-5.81-3.3-9.56-4.89m13.42-23.55-9.55-12.29a24.72,24.72,0,0,1,10.58,11.38l-1.14,1m151.77,64.06c-1.59,13.88,0,27.64-.79,41.41-2,22.76-14.45,57.46-31.63,72.48a139.5,139.5,0,0,1-61.1,28.55,197.89,197.89,0,0,1-64.85,4.55c-35.16-3.52-66.22-33.1-83.62-62.46a104,104,0,0,1-11.38-38.45,240.75,240.75,0,0,1-1.37-43.69,101.49,101.49,0,0,1,16.27-42.67,77.46,77.46,0,0,1,36.64-35,63.35,63.35,0,0,1,32.42-4.1,3.67,3.67,0,0,1,2.51.91,74.79,74.79,0,0,1,11.37,16.61c-7.39-4.43-13.19-10.69-20.25-15.81a19.38,19.38,0,0,0,7.4,10c1.7,1.71,3.75,3.07,5.57,4.78s2.39,1.82.91,3.19a2.39,2.39,0,0,1-3.37.15,1.06,1.06,0,0,1-.15-.15c-2.17-2.39-4.21-4.78-6.26-7.17a19.67,19.67,0,0,0-7.62-5.8,25.86,25.86,0,0,0,6.94,9.55c2.73,3.07,3.52,5.12-1.48,7.17a72.31,72.31,0,0,0-29.58,22.76,20.84,20.84,0,0,0-2.28,3.86,3.55,3.55,0,0,0,0,4.67c1.71,1.36,2.5-.68,3.75-1.37a156.62,156.62,0,0,1,30.61-13.31,15.24,15.24,0,0,1,11.38,9.9,5.88,5.88,0,0,1-2.85,4.66c-2,1.14-2.73-1.25-3.87-2.27a8.09,8.09,0,0,0-3.41-2.85,2.55,2.55,0,0,0,0,1,14.81,14.81,0,0,1,1.37,19.23,19.09,19.09,0,0,0-1,11.37,2.54,2.54,0,1,0,4.89,1,139.89,139.89,0,0,1,18.89-19.12A15,15,0,0,1,9635,5706a16.79,16.79,0,0,0,10.47,2.16,56.1,56.1,0,0,0-18.32-7.85,56.9,56.9,0,0,1,26.85,2.28,345.27,345.27,0,0,0,40.85,12.17,22.93,22.93,0,0,1,7.85,2.84,7.17,7.17,0,0,0,9.67,1.37c4-2.16,2.16-3.07.79-4.44a22,22,0,0,0-10.58-4.89,101,101,0,0,1-14.45-4.67c-3.52-1.59-4.32-3.18-.79-5.8a42.88,42.88,0,0,0,10.24-10,157.47,157.47,0,0,0-16.62,9.22,50,50,0,0,0,11.38-11.38,32.4,32.4,0,0,0-11.38,5.8c-1.13,0-2.39,2.05-3.41.8s.68-2.51,1.71-3.42l7.17-6.94a17.5,17.5,0,0,0-9.11,3.08c-1.25,0-2.39,1.36-3.3,0a2.86,2.86,0,0,1,0-3.64,7.51,7.51,0,0,1,8.2-2.05c11.37,4.21,22.75,8.3,34.13,12.74a9.33,9.33,0,0,1,5.57,7.28c0,3.19,2.51,3.19,5,2.73a3.75,3.75,0,0,0,3.3-4.89,8.75,8.75,0,0,0-2.62-4.89c-6.26-6.94-12.51-14-19-20.71a6.59,6.59,0,0,1-1.93-8.42,9,9,0,0,0,0-4.44c0-6.14-3.53-8.19-9-6.37,1.71-8,1.71-8,9-4.78a72.86,72.86,0,0,1,18.88,14,89.14,89.14,0,0,1,27.66,37.2c0,1,0,4.55,3.18,2,1-.8,1.37.91,1.6,1.71a44.37,44.37,0,0,1,5.12,20M9729,5739.24a119.71,119.71,0,0,0,13.43-46.3c6.83,6.94-1.82,35.49-13.43,46.3m22.76-18.2c1.71,8.87-16.16,34.13-27.53,39.7a5.9,5.9,0,0,1,2.73-5.57,192.64,192.64,0,0,0,16.95-20,60.2,60.2,0,0,0,7.85-14.11m-59.5,121.28a220.36,220.36,0,0,1,31.63-26.85c1.13-.8,2.61-2.05,4-.68s0,2.16-1,2.73c-11.37,7.28-20.14,17.86-32,24.46a12.65,12.65,0,0,1-2.61,0m22.75-27a391.6,391.6,0,0,0,34.13-38.46A91,91,0,0,1,9715,5815m2.28-20a279.09,279.09,0,0,0,30.83-31.06,68.28,68.28,0,0,1-30.83,31.06m2.73-16.5,26.39-27.42a74.56,74.56,0,0,1-26.39,27.42m-137.44-80.09a20.47,20.47,0,0,1,9.21,11.37,20.47,20.47,0,0,1-9.21-11.37m46.64,13.08a37.24,37.24,0,0,1,16.39,1.82,28.34,28.34,0,0,1-16.39-1.82m21.62-36.52a20.38,20.38,0,0,1,12.86-12.52,38.12,38.12,0,0,1-12.86,12.52" transform="translate(-1512.1 -5547.99)"/><polygon class="cls-1" points="8437.26 261.68 8446.13 303.44 8447.38 303.44 8458.42 261.68 8508.14 103.53 8530.44 103.53 8580.27 261.68 8591.54 304.57 8592.79 304.57 8602.57 261.68 8645.12 103.53 8671.97 103.53 8603.82 337.68 8581.75 337.68 8529.87 177.49 8519.63 137.1 8518.38 137.1 8508.02 177.49 8456.94 337.68 8434.64 337.68 8366.72 103.53 8393.45 103.53 8437.26 261.68"/><path class="cls-1" d="M10707.77,5775.08a135,135,0,0,1-23.78,83.85,77.8,77.8,0,0,1-65.53,31.29,95,95,0,0,1-43.12-9.33,78.42,78.42,0,0,1-30.15-26.62v121.39h-25.94V5651.52h21.84l3.19,36.41a83.18,83.18,0,0,1,30.15-30,86.19,86.19,0,0,1,43.58-10.58,76.35,76.35,0,0,1,66,34.13,152.21,152.21,0,0,1,23.78,89.66v4Zm-25.94-4.89a134.51,134.51,0,0,0-17.75-72.82,57.56,57.56,0,0,0-51.88-28.21,68.28,68.28,0,0,0-42.55,12.51,76.43,76.43,0,0,0-24.57,32.43v112.63a71,71,0,0,0,25.6,30.38,74.56,74.56,0,0,0,41.87,11.38,58.71,58.71,0,0,0,51.65-25.6,117.38,117.38,0,0,0,17.63-68.26v-4.44Z" transform="translate(-1512.1 -5547.99)"/><path class="cls-1" d="M10883.67,5584.51H10858V5548.1h25.71Zm0,301.16H10858V5651.52h25.71Z" transform="translate(-1512.1 -5547.99)"/><polygon class="cls-1" points="9549.06 315.61 9701.18 315.61 9701.18 337.57 9517.09 337.57 9517.09 318.34 9658.17 125.61 9521.41 125.61 9521.41 103.53 9690.82 103.53 9690.82 122.53 9549.06 315.61"/><polygon class="cls-1" points="9854.54 315.61 10006.66 315.61 10006.66 337.57 9822.46 337.57 9822.46 318.34 9963.54 125.61 9826.78 125.61 9826.78 103.53 9996.31 103.53 9996.31 122.53 9854.54 315.61"/><path class="cls-1" d="M11803.08,5885.67a203.9,203.9,0,0,1-3.75-20.59,140.73,140.73,0,0,1-1-17.53,103.36,103.36,0,0,1-34.13,30.5,98,98,0,0,1-48.7,12.17,73.62,73.62,0,0,1-53.13-18.2,64.44,64.44,0,0,1-18.89-48.7,60.29,60.29,0,0,1,28-52,130.52,130.52,0,0,1,75.66-19.46h51.77v-29a50,50,0,0,0-16.16-39.37,65.73,65.73,0,0,0-45.51-14.33,71.8,71.8,0,0,0-44.94,13.65,40.75,40.75,0,0,0-17.86,33.34h-23.78v-1.26a56,56,0,0,1,23.9-46.87,97.81,97.81,0,0,1,64.16-20.71A94,94,0,0,1,11801,5667a69.42,69.42,0,0,1,23.55,56.89V5839a200.73,200.73,0,0,0,1.37,24,149.51,149.51,0,0,0,4.66,22.75h-27.08Zm-85-18.43a92.79,92.79,0,0,0,49.38-13.09,77.64,77.64,0,0,0,30.94-33.45v-48.92h-52.1a95.15,95.15,0,0,0-56.89,15,44.6,44.6,0,0,0-21,37.32,40.26,40.26,0,0,0,13.09,31.06,51.66,51.66,0,0,0,36.29,12.06" transform="translate(-1512.1 -5547.99)"/></svg>