<?xml version="1.0" encoding="utf-8"?>
<!-- Generator: Adobe Illustrator 24.0.0, SVG Export Plug-In . SVG Version: 6.00 Build 0)  -->
<svg version="1.1" id="Capa_1" xmlns="http://www.w3.org/2000/svg" xmlns:xlink="http://www.w3.org/1999/xlink" x="0px" y="0px"
	 viewBox="0 0 110 110" style="enable-background:new 0 0 110 110;" xml:space="preserve">
<style type="text/css">
	.st0{fill-rule:evenodd;clip-rule:evenodd;fill:#FFFFFF;}
</style>
<g id="_x30_305-wine">
	<g>
		<path class="st0" d="M55.5,101.7c0.2-1.2-0.2-1.9-0.2-2.9c0.1-5.2-0.1-9.9-0.2-14.8c-0.4-1.5-0.4-3.3-0.7-4.9
			c-0.2-10.8,0.5-22.8-0.5-32.1c-1.3-4.4-3.5-7.8-5.4-11.7c-1.1-1.3-2.3-2.5-3.2-4.1c-1.2-3.8-1.3-8.6-1.7-13.1
			c-0.2-0.9,0.9-0.6,1.2-1c0.2-0.5,0.7-0.7,0.7-1.5C45,14.4,45.6,12.1,45,11c-0.3-0.4-0.5-1-1.2-1c-0.4-0.4-1.7,0-1.5-1
			c0.2-2.7,0.2-6.9-1.2-8.8c-0.8,0.1-1-0.4-1.9-0.2c-0.3,0-0.3,0.3-0.7,0.2c-1.6,0.3-2.3-0.1-4.1,0c-1,0.5-2.1,1-2.9,1.7
			c0.2,2.7-1,5.1-0.2,7.5c-1,0.4-2.4,0.3-3.2,1c-0.7,1.4-1,3.9-0.5,5.8c0.4,0.4,0.6,1,1.2,1.2c0.4,0.5,1.9-0.1,1.7,1
			c-0.1,3.9,0.2,6.6,0,10.2c-0.6,0.5-0.4,1.7-1,2.2c-0.2,0.9-0.7,1.4-1,2.2c-0.7,1.4-1.7,2.5-2.4,3.9c-1.8,2.4-2.7,5.7-3.9,8.8
			c-2,6.5-2.1,15-2.2,23.4c0.2,0.8,0.3,1.8,0.5,2.7c-0.1,9.1,0.7,17.3,0.5,26.5c0.3,2.5,0.6,5.1,1,7.5c0.9,1,2,1.7,2.9,2.7
			c3.7,1,8.1,1.3,12.6,1.5c3.6-0.3,7-0.7,10-1.7c1.4-0.6,3-0.9,4.1-1.7c1.1,0.1,1.3-0.7,2.2-0.7c0.5-0.5,1.5-0.5,1.5-1.5
			C55.8,104,55.3,102.5,55.5,101.7z M42.1,13.2c0,1.6-2.3,0.9-3.7,1.2c-0.7,0.2-1.5,0.3-2.2,0.5C36,14.2,36,13.4,36,12.4
			c0.9,0,1.8,0,2.4,0.2C39.6,12.9,41.7,12.2,42.1,13.2z M38.2,3.2v1.5c0.3,0.8-0.8,0.2-0.5,1c-0.2,0.8,0.6,0.5,0.7,1
			c0,1.1,0.1,2.2-0.2,2.9h-4.1c0-2.2-0.3-4.1-0.7-5.8C34.3,2.9,36.7,2.7,38.2,3.2z M33.1,12.4h0.7c0.1,1,0.7,2.2,0,2.7
			C32.9,15,33.1,13.6,33.1,12.4z M24.3,56.2c0.1-5.9,1.1-11,3.2-15.1c2-4.1,5-7.2,6.1-12.2c0-3.4,0.2-7.1-0.2-10.2V18
			c2.7,0.7,5.6-0.4,8.3,0.2c0,1.9-0.3,3.6-0.5,5.4c0.2,3.2,0.3,6.4,1.2,8.8c0.8,1.3,1.4,2.8,2.4,3.9c0.1,0.9,0.9,1.2,1,2.2
			c0.6,0.4,0.5,1.5,1.2,1.7c0.6,1.5,1.4,2.6,1.9,4.1c0.2,0.4,0.3,0.8,0.5,1.2c0.1,0.3,0.4,0.8,0.5,1c0.3,0.6,0.9,1.2,0.7,2.2
			c-4.8,0.3-10,0.3-14.1,1.2c-3,0-6.5-0.4-8,1.2c-0.2,2.1,0.3,3.6,0.2,5.6C27.8,56.9,25.3,56.8,24.3,56.2z M29.2,83.7
			c0-1.1-0.6-1.5-0.7-2.4c0.2-2,0.2-4.1,0.7-5.8c0.5,0.6,0.1,2.1,0.5,2.9v1.5c0.2,0.8-0.4,0.9-0.2,1.7c0.1,2.2,0.3,4.2,0.5,6.3
			C28.7,87.3,28.9,85.2,29.2,83.7z M34.8,105.4h-0.7v-0.5c0.2,0,0.2-0.1,0.2-0.2h0.5L34.8,105.4L34.8,105.4z M34.6,90.8
			c0.1-0.6-0.4-0.5-0.2-1.2H36C35.8,90.2,35.3,90.6,34.6,90.8z M49.6,102.9c-0.9,0.8-1.8,1.6-3.7,1.5c-1.2,0.5-2.6,0.9-4.4,0.7
			c-1-0.8-2.2-1.9-1.7-3.4c1.4-0.8,3.9-0.5,5.1-1.5c0.7-0.5,0.8-1.7,1.2-2.4c0.2-1.1-0.3-2.9,0.2-3.6c0-0.6,0.4-0.8,0.7-1h1.5
			C50.5,94.9,49.9,100,49.6,102.9z M38.2,90.1c0.5-0.6,2.1-0.2,2.7,0C40.7,91.4,38.8,90.5,38.2,90.1z M50.9,84.5
			c-2.5,0.4-5,0.6-7.3,1.2c-2.5,0-4.8-0.2-7.1-0.5c-1.2-0.2-1.6,0.4-2.7,0.2c-0.3-1.2-0.4-2.7-0.5-4.1c-0.2-0.7,0.2-0.9,0.2-1.5
			c0-5.4-0.1-10.6-0.5-15.6v-3.4c-0.3-1-0.1-2.7-0.5-3.6c0.1-1.2-0.6-2.7-0.2-3.4c6.4,0.1,11.9-0.8,18.5-0.5c0,4.4,0.4,8.4,0.2,12.9
			c-0.6-1-0.5-2.7-1.9-2.9c-1.6-0.4-1.1,1.3-2.2,1.5c-0.6-1.4-1.3-2.5-3.2-2.7c-1.5,0.1-1.7,1.4-2.2,2.4c-0.9-0.3-0.8-1.7-1.7-1.9
			c-0.4,0.1-1.4-0.3-1.5,0.2c-0.8-0.1-1.3-1.2-2.2-0.5c-1,0.8-0.2,2.8-0.2,4.1c0.5,0.3,0.2,1.5,0.7,1.7c0,0.8,0.7,0.9,1.2,1.2
			c1,0.1,1.4-0.5,1.7-1.2c0.9,0.3,1,1.3,1.9,1.5c1.7-0.4,2-2.1,2.4-3.6c1.4,0.8,0.8,3.6,2.9,3.6c1.2,0.1,1.6-0.7,2.2-1.2
			c0.7-0.3,1.6-0.5,1.7-1.5c0.6,0.4,0.1,1.9,0.2,2.7v2.9c0.2,0.7-0.3,0.6-0.2,1.2C50.9,73.8,50.9,84.5,50.9,84.5z M51.1,92.5
			c0-0.3,0.2-0.1,0.2,0C51.3,92.8,51.1,92.6,51.1,92.5z M36.5,5.2c0.1-1.1-0.8-1.3-1.5-1v1C35.4,5.5,36.2,5.5,36.5,5.2z M35.8,8.3
			c1,0.1,1.5-0.3,1.5-1.2C36.6,5.3,34.4,7.3,35.8,8.3z M77.6,80.1c1.1,0.1,1.3-0.7,2.2-0.7c2-1.4,4-2.6,5.8-4.1
			c0.1-0.8,0.9-0.9,1-1.7c0.7-0.2,0.5-1.3,1.2-1.5c0.2-1.6,1.2-2.6,1.2-4.4c0.7-1.2,0.6-3.3,1-4.9v-4.9c-0.2-0.6-0.3-1.3-0.2-2.2
			c-0.2-0.7-0.1-1.7-0.5-2.2c-0.3-3.1-1.5-5.4-1.9-8.3c-0.9-1.2-1.7-2.6-2.7-3.6c-3.4-1.7-9.4-2.1-14.4-1.5
			c-3.5-0.2-5.8,0.8-8.3,1.7c-4.8,4.1-5.3,12.3-5.1,21.4c0.7,5.5,2.6,9.8,5.6,12.9c1.4,0.9,2.8,1.7,4.4,2.4c1.6,0.7,3.7,1,4.6,2.4
			c0.1,5.4,0.3,10.8,0.7,15.8c-1.4,1.8-3.4,3.1-5.6,4.1c-1.9,1-5.4,0.5-5.8,2.9c0,2.7,2.5,2.8,4.1,3.9c4.4,0.9,9.4,1.1,14.8,1
			c2-0.4,3.9-1,5.8-1.5c1.3-1.2,3.9-1.1,3.9-3.6c0-0.8-0.5-1.2-1.2-1.2c-0.3-0.5-0.8-0.8-1.5-1c-1.2-0.5-2.4-1-3.6-1.5
			c-0.9-0.7-2.4-0.8-3.4-1.5c-1.2-0.5-2.7-0.7-3.4-1.7v-4.1c-0.6-0.9,0.1-3.1-0.5-3.9c0.2-1.6-0.3-2.7-0.2-4.1
			c0.2-1.6-0.7-2.7,0.2-3.6C75.9,80.2,77.2,80.5,77.6,80.1z M68.6,42.4c1.9-0.1,3.5-0.4,5.6-0.2c1.8-0.5,4.6-0.1,6.8-0.2
			c0.6,0.4,1.5,0.5,2.2,0.7c0.3,0.7,1.2,0.7,1,1.9c-0.5,2.4-3.7,1.7-6.3,1.7h-8c-1.9-0.6-4.9,0-5.4-1.9C64.6,42.4,67,42.7,68.6,42.4
			z M76.4,101.7c1.6,0.5,2.9,1.1,4.4,1.7c-0.2,0.9-1.9,0.3-2.4,0.7H73c-1.1-0.3-2.5-0.3-3.9-0.2c1.2-1.2,3-1.7,3.9-3.2
			c0.6,0,1-0.1,1.2-0.5C75.5,100.2,75.6,101.3,76.4,101.7z M73.5,58.2h-6.1c-2.1-0.2-4.1-0.6-6.6-0.5c-0.1-4,0.2-7.6,1-10.7
			c5.6,2.3,15.6,2.5,22.6,1.2c0.7,2.9,1.6,5.5,1.7,9c-0.5,0.4-1.6,0.2-2.4,0.2c0.1,2.7,0.4,5.1,0.2,8c-0.7,2.3-0.8,5-3.9,4.9
			c-2-1.2-1.2-3.7-1-6.3c0.1-2-0.1-4.1,0.2-5.8C77.9,58,75.8,58.2,73.5,58.2z M45.8,74.2c-2-0.1-4.1-0.2-4.4,1.5
			c0.5,0.7,1,1.2,2.2,1.2h3.6c1.1-0.4,2.9-0.2,2.9-1.7C50.1,73.4,47.1,74,45.8,74.2z M44.8,80.8c0.2,0.1,0.3,0.2,0.2,0.5
			c1.5,0,3,0.1,3.2-1.2C47.7,78.9,44.6,79.1,44.8,80.8z"/>
	</g>
</g>
</svg>
